<?xml version="1.0" encoding="UTF-8" standalone="no"?>
<!-- Created with Inkscape (http://www.inkscape.org/) -->

<svg
   xmlns:dc="http://purl.org/dc/elements/1.1/"
   xmlns:cc="http://creativecommons.org/ns#"
   xmlns:rdf="http://www.w3.org/1999/02/22-rdf-syntax-ns#"
   xmlns:svg="http://www.w3.org/2000/svg"
   xmlns="http://www.w3.org/2000/svg"
   xmlns:sodipodi="http://sodipodi.sourceforge.net/DTD/sodipodi-0.dtd"
   xmlns:inkscape="http://www.inkscape.org/namespaces/inkscape"
   width="208.44177mm"
   height="179.50533mm"
   viewBox="0 0 208.44177 179.50533"
   version="1.1"
   id="svg8"
   inkscape:version="0.92.3 (2405546, 2018-03-11)"
   sodipodi:docname="Efficiency.svg">
  <title
     id="title176">Efficiency</title>
  <defs
     id="defs2" />
  <sodipodi:namedview
     id="base"
     pagecolor="#ffffff"
     bordercolor="#666666"
     borderopacity="1.0"
     inkscape:pageopacity="0.0"
     inkscape:pageshadow="2"
     inkscape:zoom="0.70710678"
     inkscape:cx="455.43613"
     inkscape:cy="697.17614"
     inkscape:document-units="mm"
     inkscape:current-layer="layer1"
     showgrid="false"
     fit-margin-top="0"
     fit-margin-left="0"
     fit-margin-right="0"
     fit-margin-bottom="0"
     inkscape:window-width="1600"
     inkscape:window-height="845"
     inkscape:window-x="0"
     inkscape:window-y="27"
     inkscape:window-maximized="1" />
  <metadata
     id="metadata5">
    <rdf:RDF>
      <cc:Work
         rdf:about="">
        <dc:format>image/svg+xml</dc:format>
        <dc:type
           rdf:resource="http://purl.org/dc/dcmitype/StillImage" />
        <dc:title>Efficiency</dc:title>
        <dc:date>2022</dc:date>
        <dc:creator>
          <cc:Agent>
            <dc:title>Doodleguy</dc:title>
          </cc:Agent>
        </dc:creator>
        <dc:rights>
          <cc:Agent>
            <dc:title>public domain</dc:title>
          </cc:Agent>
        </dc:rights>
        <cc:license
           rdf:resource="http://creativecommons.org/publicdomain/zero/1.0/" />
      </cc:Work>
      <cc:License
         rdf:about="http://creativecommons.org/publicdomain/zero/1.0/">
        <cc:permits
           rdf:resource="http://creativecommons.org/ns#Reproduction" />
        <cc:permits
           rdf:resource="http://creativecommons.org/ns#Distribution" />
        <cc:permits
           rdf:resource="http://creativecommons.org/ns#DerivativeWorks" />
      </cc:License>
    </rdf:RDF>
  </metadata>
  <g
     inkscape:groupmode="layer"
     id="layer2"
     inkscape:label="bund"
     transform="translate(-1.0673199,-116.97255)" />
  <g
     inkscape:label="Layer 1"
     inkscape:groupmode="layer"
     id="layer1"
     transform="translate(-1.0673199,-116.97255)">
    <g
       id="g174"
       transform="matrix(1.2983219,0,0,1.2983219,-18.293101,-77.272362)">
      <path
         transform="scale(0.26458333)"
         inkscape:connector-curvature="0"
         id="path37"
         d="m 528.48386,713.04655 c -0.93383,1.2995 -0.21417,3.7721 -0.55535,5.42972 -0.47687,22.84214 1.24537,45.67931 3.22373,68.42092 1.55062,26.7401 1.54869,53.56105 2.11554,80.34055 0.26957,14.2065 0.33103,28.45568 1.53151,42.59846 -0.17826,5.15661 0.61302,10.77667 -1.72668,15.54408 -3.18426,3.90703 -7.3954,7.8636 -12.84398,7.42499 -3.93739,-0.12883 -8.18015,0.57625 -11.91694,-0.76325 -3.27374,-1.45474 -6.22572,-5.87475 -10.20465,-4.3713 -2.47777,1.4169 -5.13575,3.99185 -3.8351,7.11826 1.69885,4.42517 4.67175,8.882 9.00433,11.07142 5.57662,2.20584 10.56075,-2.59085 15.80775,-3.50255 3.37308,2.05934 6.08897,5.70002 6.98839,9.58579 0.35481,3.24471 -3.93265,3.04203 -6.08225,2.97914 -4.85305,0.4874 -8.75177,-2.71121 -13.06867,-4.20701 -4.06143,0.41475 -5.97714,5.67808 -4.19717,9.10469 0.56926,2.8352 2.1386,5.7757 5.33845,6.07143 4.86166,1.43506 11.11896,-0.10729 14.62515,4.41558 3.52349,4.15945 3.62778,10.07901 4.72452,15.17808 0.74711,4.37928 0.59187,9.00284 -1.7503,12.91027 -0.96897,1.76258 -0.67961,4.69768 -3.35301,4.88878 -5.4009,0.8472 -12.50717,-0.327 -14.66549,-6.12156 -1.85372,-3.6286 -1.72051,-8.1179 -4.02695,-11.48268 -2.78783,-1.56023 -6.33544,0.85352 -6.30166,3.99842 -0.52738,7.17459 1.02841,14.52812 3.84691,21.11762 1.6305,3.8289 5.32903,7.0324 9.72452,6.3706 4.20552,0.3439 8.72759,-1.9797 12.69776,-0.2234 1.28903,0.8273 2.28185,2.807 0.26958,3.4396 -1.63101,1.3323 -5.34793,-0.3886 -5.65132,2.4371 0.0998,1.9835 -0.21564,5.8611 2.77253,5.6149 6.61777,0.1948 12.82863,-2.8874 19.33195,-3.2743 4.03417,1.7376 4.29028,6.7545 5.2135,10.4437 1.78394,3.9642 7.14492,2.9885 10.63225,2.9766 2.74462,0.032 5.76025,-0.7131 6.7792,-3.6073 1.53147,-1.9246 1.20973,-4.2843 0.22826,-6.3577 -1.58499,-6.528 3.18723,-12.0418 6.97112,-16.7539 5.4691,-6.5923 10.60783,-14.00986 11.51178,-22.77422 1.34423,-11.26743 0.78705,-22.97729 -2.59545,-33.85145 -5.64253,-14.37412 -15.71713,-26.38194 -24.48544,-38.91086 2.86012,-8.69406 11.44245,-13.16682 17.55995,-19.31209 3.05121,-2.89249 7.6513,-7.0377 5.66319,-11.68949 -2.46702,0.0166 -4.6009,2.30527 -6.79452,3.32479 -2.61466,2.0449 -1.78211,0.57892 -0.68383,-1.49381 0.61747,-2.10342 1.87238,-5.22969 0.13872,-7.03365 -2.16098,0.50399 -2.86465,3.53673 -4.29108,5.01181 -2.71213,3.71671 -5.19904,8.19916 -9.37874,10.3719 -3.83594,0.84431 -5.95782,-3.46037 -8.37268,-5.62082 -4.91412,-5.51871 -3.58463,-13.55447 -4.62381,-20.3139 -2.65574,-25.73155 -2.41463,-51.62995 -2.96798,-77.46427 -0.47911,-25.07742 -0.36543,-50.17912 -1.36047,-75.23939 0.82208,-3.75372 -3.8162,-2.42938 -6.07252,-3.26833 -1.62341,-0.22858 -3.25286,-0.50973 -4.89455,-0.55197 z"
         style="opacity:1;vector-effect:none;fill:#cccccc;fill-opacity:1;stroke:none;stroke-width:1.07570016;stroke-linecap:round;stroke-linejoin:miter;stroke-miterlimit:4;stroke-dasharray:none;stroke-dashoffset:0;stroke-opacity:1" />
      <path
         transform="scale(0.26458333)"
         inkscape:connector-curvature="0"
         id="path39"
         d="m 522.56565,670.26929 c -5.0456,0.18071 -9.32178,3.62934 -12.30819,7.4517 -3.35714,4.41153 -5.7774,9.44144 -8.48017,14.25993 -5.17807,9.59938 -10.02374,19.3734 -14.60177,29.2715 -1.70058,3.62542 -4.12719,6.84365 -6.03413,10.34607 -0.46086,0.92041 0.8264,1.1549 1.46514,1.08598 2.59476,-0.18116 5.35003,-0.81345 7.37405,-2.53338 4.33412,-4.96793 6.83803,-11.1798 10.20147,-16.78343 3.43067,-5.99127 7.43993,-11.63505 10.64923,-17.75662 1.85473,-3.07561 3.66097,-6.45328 6.73822,-8.47248 1.17246,-0.69298 2.33241,0.54803 3.2656,1.11972 2.97308,2.51267 4.76259,6.22949 5.67446,9.96482 0.73294,3.57054 0.38047,7.36047 1.61714,10.83062 0.87506,1.43842 2.83593,1.10732 4.26255,1.32793 2.6348,0.0734 5.34925,0.33295 7.93233,-0.29691 2.31524,-0.73528 2.76224,-3.45766 2.89526,-5.55708 0.22334,-5.29875 -0.1727,-10.61252 -0.70233,-15.88314 -0.47664,-4.51434 -2.62705,-8.70931 -5.3914,-12.24544 -2.55249,-3.01679 -6.26305,-4.91138 -10.06743,-5.80595 -1.47785,-0.282 -2.98994,-0.31671 -4.49003,-0.32384 z"
         style="opacity:1;vector-effect:none;fill:#6c5353;fill-opacity:1;stroke:none;stroke-width:0.38031745;stroke-linecap:round;stroke-linejoin:miter;stroke-miterlimit:4;stroke-dasharray:none;stroke-dashoffset:0;stroke-opacity:1" />
      <path
         transform="scale(0.26458333)"
         inkscape:connector-curvature="0"
         id="path41"
         d="m 467.92241,759.38289 c -1.29994,0.10429 -0.84811,1.85788 -1.60517,2.57773 -2.24752,2.99873 -4.36833,6.12716 -6.04732,9.50315 -1.89418,3.68513 -4.17539,7.15738 -6.91608,10.26662 -2.28761,4.62837 -5.86098,8.5366 -8.27578,13.1159 -2.08136,3.87471 -6.01914,6.2467 -9.30687,8.98761 -6.62465,5.05512 -14.19388,8.9234 -22.20316,11.22471 -5.44843,1.3003 -11.20227,1.08583 -16.68916,0.16362 -4.88293,-1.239 -9.36654,-3.76287 -13.58218,-6.47793 -6.2971,-4.53859 -11.71726,-10.17351 -16.8791,-15.93362 -3.64422,-5.2489 -7.79303,-10.13862 -12.56633,-14.39825 -4.14948,-3.74827 -8.19736,-8.16748 -13.83715,-9.55984 -8.91712,-2.46001 -18.32937,-2.85402 -27.51011,-2.03253 -1.95396,0.36708 -4.43915,0.34949 -5.78534,2.03499 -0.67908,1.60609 1.47211,2.40599 2.58872,2.89908 2.90556,1.05824 5.69638,2.39825 8.58306,3.48226 4.58058,0.70062 9.52036,0.32342 13.63015,2.84075 8.33112,4.85137 15.07136,11.97931 21.23411,19.30163 8.7197,10.27557 19.24973,19.25621 31.66453,24.72325 6.18337,2.68867 12.56673,5.33208 19.3252,6.05645 4.71462,0.0515 9.52052,0.40936 14.16962,-0.54309 6.29547,-1.7195 12.11353,-4.9662 17.3997,-8.74287 5.93477,-4.51274 10.68316,-10.34835 15.73732,-15.77883 3.51019,-4.11901 7.35761,-8.0299 10.28683,-12.59558 1.10059,-2.99238 3.30001,-5.47839 4.93885,-8.19389 2.35634,-3.10655 3.47441,-6.87073 5.2871,-10.28306 1.24022,-2.9378 3.11612,-5.71196 3.67557,-8.88432 -0.22401,-1.71064 -2.33374,-2.15303 -3.64026,-2.82753 -1.17839,-0.42826 -2.40263,-0.94387 -3.67675,-0.92641 z"
         style="opacity:1;vector-effect:none;fill:#6c5353;fill-opacity:1;stroke:none;stroke-width:0.53785008;stroke-linecap:round;stroke-linejoin:miter;stroke-miterlimit:4;stroke-dasharray:none;stroke-dashoffset:0;stroke-opacity:1" />
      <path
         transform="scale(0.26458333)"
         inkscape:connector-curvature="0"
         id="path43"
         d="m 278.21761,771.43407 c -3.81327,0.5575 -7.10298,2.8432 -10.38469,4.71763 -14.05904,8.97174 -24.3452,22.60316 -32.97407,36.62918 -5.24583,8.913 -10.98413,18.03039 -12.35396,28.49688 -1.31215,7.8567 -4.77196,15.21429 -5.59669,23.17855 -1.44565,12.32712 -1.1398,24.77325 -1.29826,37.16173 -0.10893,15.91728 0.35416,31.83934 -0.0286,47.75335 -0.9739,9.93881 -2.67634,19.89987 -5.91844,29.36935 -2.46864,6.28599 -7.12914,11.4648 -11.96035,16.06159 -1.93055,1.94107 -4.43629,3.09947 -6.61452,4.68713 -1.90876,1.80954 -1.59685,5.64264 1.06897,6.60324 3.27115,1.7852 7.3294,1.6439 10.54703,-0.1953 5.55768,-2.591 9.15928,-7.85621 11.73082,-13.22349 4.56186,-8.96252 7.93141,-18.69053 8.38352,-28.81057 0.86188,-16.31362 -1.78325,-32.53941 -2.185,-48.82778 -0.58195,-13.60812 1.00646,-27.20883 3.8034,-40.50852 2.09193,-9.87149 4.07997,-19.82678 7.5082,-29.33412 0.90864,-1.51201 1.19502,-3.24161 1.42956,-4.93949 2.03309,-6.53732 5.46281,-12.57841 9.1852,-18.29997 2.49175,-3.60427 4.13529,-7.71567 6.77112,-11.23663 3.08687,-4.23146 5.01837,-9.35522 8.96546,-12.91322 2.69266,-2.03617 5.39008,-4.06661 7.9047,-6.32623 4.33088,-3.39694 9.65685,-5.16025 14.18011,-8.23989 1.17745,-1.73442 0.87213,-4.07321 0.9579,-6.07575 -0.22063,-1.81168 0.0912,-4.25379 -1.59298,-5.44481 -0.46446,-0.25274 -1.00786,-0.31119 -1.52844,-0.28286 z"
         style="opacity:1;vector-effect:none;fill:#6c5353;fill-opacity:1;stroke:none;stroke-width:0.53785008;stroke-linecap:round;stroke-linejoin:miter;stroke-miterlimit:4;stroke-dasharray:none;stroke-dashoffset:0;stroke-opacity:1" />
      <path
         transform="scale(0.26458333)"
         inkscape:connector-curvature="0"
         id="path45"
         d="m 337.10797,569.30335 c -5.20423,0.0499 -10.69902,0.83134 -14.95088,4.078 -6.57231,5.01995 -11.68818,11.779 -15.51509,19.06611 -2.44406,4.77771 -4.41258,9.78758 -6.11119,14.86663 -1.04442,2.33373 -1.98228,4.73159 -2.33597,7.28646 -1.6958,9.58143 -2.98136,19.31335 -2.64956,29.06346 0.31155,6.25679 1.42712,12.96797 5.78963,17.7697 3.40595,3.9158 8.33586,5.94325 12.93723,8.07543 5.27976,2.38309 11.14484,3.14585 16.89393,2.79691 3.83987,-0.12407 7.79838,-0.32041 11.31767,-2.0329 6.53513,-3.03505 12.9546,-7.01802 17.10361,-13.06322 4.09353,-5.99508 6.89616,-12.76648 9.38565,-19.55362 2.1144,-6.08126 3.92759,-12.39627 3.85908,-18.89198 0.27774,-8.6706 -2.081,-17.2604 -5.73468,-25.06496 -3.89242,-8.04377 -9.4452,-15.44228 -16.67939,-20.7643 -2.82015,-2.15099 -6.28725,-3.26182 -9.80407,-3.49571 -1.16525,-0.10558 -2.33606,-0.14761 -3.50597,-0.13601 z m 16.64595,25.37034 c 2.99491,-0.0941 5.02205,2.534 7.06429,4.32497 1.05588,1.16581 2.55087,2.29632 2.74296,3.95418 -0.22799,0.9199 -1.42553,0.41119 -1.83942,-0.10818 -1.83627,-1.51941 -2.81998,-4.30211 -5.37879,-4.77666 -3.29652,-0.38129 -6.63959,-0.19925 -9.95125,-0.11305 -3.26041,0.0119 -6.12161,1.70089 -8.85206,3.283 -0.65007,0.22154 -1.44787,0.9944 -2.1337,0.64073 -0.17119,-1.04782 1.10415,-1.6333 1.8029,-2.18031 4.9793,-2.9956 10.71829,-4.87111 16.54507,-5.02468 z m -31.54257,6.16667 c -0.8639,1.74956 -2.46554,3.09 -3.83925,4.4738 -3.54172,3.12026 -7.66859,5.64998 -12.13987,7.20069 -1.3601,0.34156 -3.15912,0.98162 -4.32445,-0.11305 -0.70826,-0.76543 0.50057,-1.27957 1.10511,-1.49853 4.20739,-1.53481 8.55796,-2.89907 12.24706,-5.52801 2.32035,-1.46274 4.33464,-3.47569 6.88601,-4.53421 l 0.0386,-0.003 z m -11.95834,16.18574 c 1.52357,-0.0625 1.87378,1.93751 1.49227,3.07568 -0.20358,1.00946 -1.27401,2.32282 -2.37963,1.55001 -0.82613,-0.52594 -1.65178,-1.39455 -1.76185,-2.38937 0.50945,-0.95671 1.34031,-1.99649 2.44398,-2.22971 0.0681,-0.007 0.13702,-0.004 0.20523,-0.007 z m 25.8469,2.50312 c 1.25437,0.58766 1.57838,2.18934 2.19943,3.31154 1.48434,3.65704 2.8276,7.41388 3.55851,11.29915 0.39762,2.49993 -1.79343,4.29644 -3.363,5.88595 -2.87975,2.65034 -6.1329,5.15574 -10.06293,5.93076 -3.62705,0.84808 -7.83751,1.28603 -11.03409,-1.04558 -3.46786,-2.32877 -5.79085,-6.13936 -6.89124,-10.11022 -0.63293,-2.71214 -0.54906,-5.94215 1.59389,-7.99913 1.98469,-2.05891 4.67548,-3.88283 7.61924,-3.86981 0.17469,1.10521 -1.1307,1.75837 -1.82551,2.3765 -1.72375,1.33633 -4.38003,2.33864 -4.65561,4.81736 -0.15618,3.35439 0.72916,6.75847 2.28363,9.72167 1.32363,2.4623 4.1885,3.66795 6.89818,3.51049 4.76684,0.16571 9.66971,-0.956 13.59567,-3.74111 1.68442,-1.21667 3.36169,-3.0872 2.96718,-5.32948 -0.14384,-4.83506 -2.66782,-9.20605 -3.15746,-13.96291 0.0321,-0.22182 -0.0605,-0.75323 0.27411,-0.79518 z m 12.68534,2.40016 c 1.3083,0.21345 2.61771,1.21902 2.95254,2.52155 -0.49388,1.15658 -1.41665,2.40354 -2.69756,2.70244 -1.57937,-0.28279 -1.89935,-2.21546 -1.52184,-3.51014 0.17593,-0.62605 0.43221,-1.72292 1.26686,-1.71385 z m -41.82984,20.85735 c 0.81195,0.64347 0.50585,1.94738 0.67448,2.87949 0.22389,1.38588 -0.3821,3.30222 1.01745,4.21802 2.81493,1.77895 6.24648,2.13925 9.44409,2.80184 7.10613,1.12141 14.25275,2.15326 21.44731,2.4545 1.43633,-0.0337 3.38344,0.24838 4.1794,-1.28287 0.92185,-1.22405 0.68501,-2.9685 1.65089,-4.13662 0.87143,-0.3557 1.52634,0.79916 2.02726,1.3347 0.87214,1.31647 1.92453,2.63957 2.41059,4.1307 -0.58452,0.75461 -1.76731,0.76543 -2.58242,1.19939 -3.58582,1.082 -7.34887,1.86253 -11.11586,1.69124 -1.50707,-0.36805 -3.01511,-0.77775 -4.58152,-0.86649 -7.63859,-0.65233 -15.5769,-1.11547 -22.59353,-4.49262 -1.92002,-1.06652 -4.2551,-2.23844 -4.92651,-4.50136 -0.26226,-1.72214 0.77959,-3.32525 1.71385,-4.68378 0.30192,-0.37718 0.7167,-0.77414 1.23452,-0.74614 z"
         style="opacity:1;vector-effect:none;fill:#ffaaaa;fill-opacity:1;stroke:none;stroke-width:0.38031745;stroke-linecap:round;stroke-linejoin:miter;stroke-miterlimit:4;stroke-dasharray:none;stroke-dashoffset:0;stroke-opacity:1" />
      <path
         transform="scale(0.26458333)"
         inkscape:connector-curvature="0"
         id="path47"
         d="m 484.79539,713.40872 c -0.95061,0.073 -1.44708,1.09146 -1.98741,1.75644 -2.8034,4.21104 -3.70756,9.60156 -7.47786,13.17149 -1.43853,1.41242 -3.48091,1.91727 -5.44359,1.95037 -2.03214,0.0626 -4.0459,0.81729 -5.46293,2.30686 -3.32581,2.99455 -4.57338,7.46358 -5.84201,11.59291 -0.16625,0.87106 -0.66853,1.79262 -0.46713,2.6807 0.83264,0.65325 2.02657,0.41184 3.01245,0.52997 1.89235,0.10936 3.82176,-0.13249 5.68713,0.24901 1.88876,0.60466 2.55403,2.81378 4.34105,3.59627 0.70084,0.47834 1.77608,0.23077 2.0216,-0.63214 0.15116,-0.96185 0.25459,-1.94883 0.78414,-2.80475 0.45568,-1.08909 1.59116,-1.8013 1.92739,-2.95184 0.0242,-1.1369 -1.09858,-1.86934 -1.70755,-2.7008 -0.72149,-0.77752 -1.66187,-1.80248 -1.15574,-2.94732 0.47548,-1.17877 1.27361,-2.43625 2.57182,-2.77868 0.88023,-0.6143 0.56567,-1.88154 0.99247,-2.74523 1.17759,-2.95241 3.58055,-5.16412 5.20858,-7.85468 1.99424,-3.11253 3.88357,-6.46509 4.41436,-10.17488 0.14089,-0.86952 -0.0921,-2.19617 -1.19269,-2.23952 -0.0745,-0.006 -0.14939,-0.006 -0.22408,-0.004 z"
         style="opacity:1;vector-effect:none;fill:#ffaaaa;fill-opacity:1;stroke:none;stroke-width:0.26892504;stroke-linecap:round;stroke-linejoin:miter;stroke-miterlimit:4;stroke-dasharray:none;stroke-dashoffset:0;stroke-opacity:1" />
      <path
         transform="scale(0.26458333)"
         inkscape:connector-curvature="0"
         id="path49"
         d="m 493.4529,731.43937 c -0.63591,0.14683 -1.22395,0.46194 -1.84041,0.67492 -2.87385,1.13822 -5.7727,2.21459 -8.62815,3.39843 -1.8073,0.79656 -3.62756,1.61553 -5.24564,2.76076 -0.35621,0.26168 -0.78283,0.61508 -0.69182,1.11293 0.0473,0.55975 0.55423,0.96625 1.09389,1.01102 1.73446,0.14209 3.41992,-0.41045 5.07453,-0.849 2.58489,-0.75729 5.15409,-1.57858 7.67161,-2.53792 1.05487,-0.44414 2.21677,-0.87556 2.93097,-1.82133 0.54258,-0.77786 0.45112,-1.79059 0.33938,-2.68225 -0.0795,-0.40064 -0.20925,-1.01445 -0.70436,-1.06756 z"
         style="opacity:1;vector-effect:none;fill:#ffaaaa;fill-opacity:1;stroke:none;stroke-width:0.09507936;stroke-linecap:round;stroke-linejoin:miter;stroke-miterlimit:4;stroke-dasharray:none;stroke-dashoffset:0;stroke-opacity:1" />
      <path
         transform="scale(0.26458333)"
         inkscape:connector-curvature="0"
         id="path51"
         d="m 488.88652,741.31288 c -1.38879,0.052 -2.73908,0.45131 -4.05614,0.86733 -1.69339,0.58103 -3.37107,1.27118 -4.86879,2.26322 -0.38388,0.29264 -0.88142,0.63043 -0.91937,1.15694 0.0622,0.40318 0.5619,0.47458 0.88279,0.57139 1.76817,0.38256 3.58966,0.31885 5.38699,0.29134 1.60757,-0.0663 3.23258,-0.18596 4.78744,-0.62303 1.06444,-0.31725 2.05293,-1.21618 2.1686,-2.36462 0.0598,-0.68852 -0.13893,-1.52251 -0.82536,-1.8342 -0.79034,-0.38145 -1.70404,-0.31136 -2.55616,-0.32837 z"
         style="opacity:1;vector-effect:none;fill:#ffaaaa;fill-opacity:1;stroke:none;stroke-width:0.09507936;stroke-linecap:round;stroke-linejoin:miter;stroke-miterlimit:4;stroke-dasharray:none;stroke-dashoffset:0;stroke-opacity:1" />
      <path
         transform="scale(0.26458333)"
         inkscape:connector-curvature="0"
         id="path53"
         d="m 478.12356,749.4621 c -0.55671,-0.0272 -1.05611,0.4446 -1.06842,0.99981 -0.093,0.60754 0.10517,1.32426 0.70178,1.60254 0.93563,0.40649 1.98537,0.40704 2.98749,0.45477 1.71553,0.0226 3.46836,-0.0183 5.12234,-0.51976 0.39628,-0.13676 0.95591,-0.33166 0.97633,-0.82907 -0.0339,-0.48123 -0.58958,-0.66224 -0.9885,-0.74918 -1.11606,-0.18836 -2.25567,-0.14805 -3.37787,-0.27454 -1.19325,-0.0887 -2.37003,-0.31635 -3.53151,-0.59701 -0.27061,-0.0516 -0.54534,-0.0946 -0.82164,-0.0876 z"
         style="opacity:1;vector-effect:none;fill:#ffaaaa;fill-opacity:1;stroke:none;stroke-width:0.09507936;stroke-linecap:round;stroke-linejoin:miter;stroke-miterlimit:4;stroke-dasharray:none;stroke-dashoffset:0;stroke-opacity:1" />
      <path
         transform="scale(0.26458333)"
         inkscape:connector-curvature="0"
         id="path55"
         d="m 474.26826,754.93759 c -1.0543,0.003 -2.21654,0.19728 -2.96497,1.01093 -0.35032,0.29472 -0.15487,0.83295 0.15766,1.07486 1.12628,0.98895 2.65548,1.39741 4.12563,1.4671 1.10194,0.007 2.31783,0.0129 3.25102,-0.66262 0.32245,-0.22614 0.50957,-0.62449 0.40507,-1.01545 -0.15117,-0.58706 -0.75696,-0.90278 -1.25825,-1.15373 -1.16184,-0.51308 -2.45185,-0.71932 -3.71616,-0.72109 z"
         style="opacity:1;vector-effect:none;fill:#ffaaaa;fill-opacity:1;stroke:none;stroke-width:0.09507936;stroke-linecap:round;stroke-linejoin:miter;stroke-miterlimit:4;stroke-dasharray:none;stroke-dashoffset:0;stroke-opacity:1" />
      <path
         transform="scale(0.26458333)"
         inkscape:connector-curvature="0"
         id="path57"
         d="m 296.92689,756.42336 c -1.7535,-0.0125 -3.45906,0.59444 -4.92455,1.53224 -2.14422,1.36323 -4.06959,3.06397 -5.72406,4.99019 -1.46553,1.78995 -2.49724,3.93624 -2.9134,6.21581 -0.6299,3.36292 -0.26437,6.81213 0.25332,10.16386 0.23388,1.27494 0.42166,2.66958 1.30791,3.68137 0.80609,0.88411 2.04069,1.1487 3.16782,1.36152 0.19792,0.058 0.53753,0.0462 0.50677,-0.24232 -0.0761,-0.67936 -0.44201,-1.28677 -0.72233,-1.8988 -0.70147,-1.42881 -1.6637,-2.73829 -2.12264,-4.27534 -0.11591,-0.54883 -0.1445,-1.20015 0.28157,-1.63038 0.21109,-0.21795 0.44528,-0.49358 0.75746,-0.53706 0.23154,0.1641 0.16429,0.5165 0.21172,0.76333 0.0284,0.90994 0.13957,1.82843 0.50512,2.67083 0.6558,1.58697 1.74462,3.06583 3.26637,3.91092 0.81349,0.45622 1.83717,0.50811 2.70496,0.1834 0.50865,-0.1851 0.80285,-0.75317 0.67769,-1.27704 -0.20927,-0.97399 -0.98628,-1.68603 -1.67285,-2.35127 -0.83689,-0.63494 -1.36292,-1.56965 -1.82908,-2.48809 -0.67314,-1.40854 -1.23283,-2.90733 -1.36962,-4.46186 0.006,-0.30047 -0.0593,-0.72382 0.22682,-0.91753 0.49582,-0.0138 0.82164,0.45711 1.05302,0.83858 0.351,0.57483 0.45043,1.2485 0.49569,1.90517 0.18372,1.15136 0.92155,2.11894 1.67826,2.96824 1.41967,1.53962 3.09689,2.85663 4.95982,3.81794 1.42431,0.73862 3.08883,0.73357 4.64879,0.60472 0.91131,-0.11739 1.89773,-0.26538 2.62673,-0.87152 0.32563,-0.2462 0.36365,-0.73431 0.0954,-1.03737 -0.8444,-1.09154 -1.92364,-1.97201 -2.95707,-2.8767 -1.57218,-1.30475 -3.18503,-2.60336 -4.44749,-4.22604 -0.16074,-0.25557 -0.42274,-0.53908 -0.35281,-0.86065 0.16029,-0.19684 0.41734,-0.004 0.59839,0.0659 0.90657,0.51265 1.59446,1.32692 2.48607,1.8649 0.39259,0.27082 0.83146,0.4624 1.29374,0.57256 1.25941,0.55947 2.36501,1.39775 3.48177,2.19321 1.21313,0.91182 2.48265,1.83389 3.96176,2.25273 0.78915,0.22537 1.6442,0.19067 2.40276,-0.1307 0.63724,-0.26067 1.41712,-0.59112 1.61576,-1.31974 0.14412,-0.69507 -0.41914,-1.28098 -0.91424,-1.68168 -1.87733,-1.43265 -4.23338,-1.96475 -6.3474,-2.92344 -1.41953,-0.66377 -2.89636,-1.3543 -3.89023,-2.60521 -0.4734,-0.58911 -0.68155,-1.36514 -0.60829,-2.1021 -0.008,-0.4426 0.18704,-0.87376 0.55491,-1.13092 1.12512,-0.83918 2.48213,-1.28094 3.80272,-1.70534 3.24862,-0.96516 6.62405,-1.49662 10.00263,-1.73867 1.52318,-0.115 3.06219,-0.0475 4.57871,-0.25582 0.6746,-0.10696 1.48647,-0.29588 1.79664,-0.9825 0.224,-0.70917 0.14558,-1.49075 -0.053,-2.19753 -0.37224,-1.28331 -1.50405,-2.21819 -2.75551,-2.59259 -1.55151,-0.46526 -3.21608,-0.4034 -4.7982,-0.13803 -1.46598,0.24242 -2.86603,0.76297 -4.29097,1.15538 -1.52694,0.35227 -3.11549,0.17657 -4.60986,-0.24749 -2.23247,-0.62503 -4.41283,-1.51842 -6.72681,-1.85617 -0.6517,-0.10019 -1.31083,-0.16046 -1.97063,-0.15292 z"
         style="opacity:1;vector-effect:none;fill:#ffaaaa;fill-opacity:1;stroke:none;stroke-width:0.09507936;stroke-linecap:round;stroke-linejoin:miter;stroke-miterlimit:4;stroke-dasharray:none;stroke-dashoffset:0;stroke-opacity:1" />
      <path
         transform="scale(0.26458333)"
         inkscape:connector-curvature="0"
         id="path59"
         d="m 190.44686,968.33518 c -11.34186,0.10837 -22.678,0.54272 -34.01648,0.82492 -4.86472,0.11286 -9.74072,0.38891 -14.52365,1.33772 -4.75731,0.91563 -9.57069,1.42241 -14.41791,1.46597 -6.2949,0.17361 -12.60021,0.0403 -18.89187,0.33145 -2.30159,0.17834 -4.40555,1.36748 -5.92845,3.07295 -4.857445,5.177 -8.863192,11.10068 -12.277968,17.31002 -2.213432,3.95373 -4.774064,7.69689 -6.993373,11.64589 -1.383065,2.3741 -1.796546,5.1486 -1.772388,7.8587 -0.07139,7.3168 0.335504,14.6587 1.497759,21.8874 0.176885,0.8447 0.283298,2.1227 1.392362,2.2166 4.585764,0.8432 9.283146,0.6254 13.923898,0.6734 19.33486,-0.052 38.67303,0 58.00249,-0.5254 10.97867,-0.3432 22.05388,-0.4067 32.86144,-2.5947 3.82878,-0.8063 7.86651,-2.2354 10.28737,-5.4989 2.62204,-3.5346 3.69236,-7.9032 4.99775,-12.0325 0.60883,-2.2306 1.35242,-4.4454 1.68079,-6.7388 0.15245,-1.0495 -1.2585,-1.674 -2.01397,-0.9929 -0.71607,0.6356 -1.4126,1.335 -2.36915,1.6049 -1.91308,0.6629 -4.06987,1.0729 -5.44544,2.7034 -0.76224,0.7161 -1.12571,1.9797 -2.29068,2.1345 -2.33752,0.3245 -4.71746,-0.142 -7.00391,-0.6556 -2.76217,-0.6531 -4.97268,-2.8399 -5.92919,-5.4796 -1.75812,-4.7996 -1.70485,-10.0022 -1.85831,-15.04663 0.0367,-2.57108 -0.26105,-5.25508 0.55562,-7.73099 0.70394,-1.68759 2.16619,-2.96653 3.68162,-3.9362 2.14341,-1.27888 4.75062,-0.94455 7.13346,-1.00168 1.92355,0.0673 4.17647,-0.0344 5.60464,1.50566 1.66437,1.45162 2.9482,3.34529 4.81036,4.55948 0.72697,0.48854 1.86236,0.35244 2.21124,-0.52834 0.53859,-1.44302 0.33039,-3.05026 0.32984,-4.56109 -0.3155,-3.23267 -0.81372,-6.45327 -1.43399,-9.64099 -0.32477,-1.69033 -1.58673,-3.1441 -3.27198,-3.57546 -2.56541,-0.77605 -5.2928,-0.50517 -7.9362,-0.5933 -0.19858,4e-5 -0.39715,8e-5 -0.59573,1.2e-4 z m -83.15993,6.37864 c 3.06431,0.0525 6.14878,0.1442 9.20282,0.3569 0.14907,2.19239 0.42583,4.43204 0.25089,6.60739 -0.53846,-0.28812 -0.86518,-1.25991 -1.57246,-1.08496 -0.25367,0.37412 -0.15945,0.9144 -0.46562,1.29452 -1.18675,2.07037 -2.6357,4.10716 -4.59932,5.48947 -1.82014,1.0893 -4.04167,0.77866 -6.06173,0.74446 -1.22093,-0.13483 -2.59918,-0.28127 -3.54693,-1.13825 -0.701835,-0.88865 0.0955,-2.06036 0.52905,-2.88127 1.61594,-2.66221 3.93545,-5.12025 4.3455,-8.3306 0.14829,-0.92135 1.15797,-1.06455 1.9178,-1.05766 z"
         style="opacity:1;vector-effect:none;fill:#214478;fill-opacity:1;stroke:none;stroke-width:0.26892504;stroke-linecap:round;stroke-linejoin:miter;stroke-miterlimit:4;stroke-dasharray:none;stroke-dashoffset:0;stroke-opacity:1" />
      <path
         transform="scale(0.26458333)"
         inkscape:connector-curvature="0"
         id="path61"
         d="m 610.93284,1028.5437 c -5.22201,0.273 -10.41501,0.9473 -15.62663,1.3673 -5.80654,0.5569 -11.62966,1.0021 -17.42655,1.6229 -1.39617,0.8017 -2.42678,2.119 -3.64146,3.1596 -3.62242,3.5044 -7.38793,6.8921 -11.72257,9.4895 -2.92211,1.7413 -6.00796,3.4379 -9.40328,3.9596 -2.83563,0.2896 -5.42641,-1.2688 -7.87109,-2.5298 -2.32456,-1.2195 -4.1655,-3.1088 -6.1175,-4.818 -2.01043,-1.6801 -4.81015,-1.5864 -7.27469,-1.4839 -3.08916,0.2312 -6.12549,1.088 -8.83166,2.6075 -0.49047,0.3043 -1.44825,0.5271 -1.24361,1.3053 0.33605,4.3711 0.61905,8.7532 1.16131,13.1039 0.23646,1.5152 0.69613,3.4663 2.40397,3.9167 2.08898,0.5344 4.24332,-0.1381 6.32663,-0.3874 13.51615,-2.4309 26.89116,-5.5797 40.39194,-8.0915 7.33606,-1.3554 14.67135,-2.7536 21.89614,-4.6319 7.5301,-1.9115 15.09688,-3.7169 22.51993,-6.0192 1.57551,-0.6236 3.43239,-1.1201 4.45273,-2.5816 0.73249,-1.3649 -0.4672,-2.7534 -1.27853,-3.7643 -1.81549,-2.0702 -3.68319,-4.1614 -5.93984,-5.7593 -0.84459,-0.4661 -1.83708,-0.4777 -2.77524,-0.4654 z"
         style="opacity:1;vector-effect:none;fill:#214478;fill-opacity:1;stroke:none;stroke-width:0.26892504;stroke-linecap:round;stroke-linejoin:miter;stroke-miterlimit:4;stroke-dasharray:none;stroke-dashoffset:0;stroke-opacity:1" />
      <path
         transform="scale(0.26458333)"
         inkscape:connector-curvature="0"
         id="path63"
         d="m 624.43297,1042.2761 c -2.10172,0.2028 -4.1447,0.8011 -6.20803,1.229 -9.87197,2.2924 -19.68748,4.8342 -29.46505,7.4914 -3.78678,0.9876 -7.65344,1.6122 -11.53378,2.1081 -1.70491,0.3066 -3.46501,0.5018 -5.07967,1.158 -0.6357,0.3353 -1.26218,1.1068 -0.83379,1.8403 0.69202,1.1821 2.27177,1.263 3.47205,1.0004 8.62127,-1.8224 17.39845,-2.9379 25.89593,-5.3331 6.14688,-1.712 12.25465,-3.5689 18.31719,-5.5588 2.19582,-0.7867 4.46914,-1.4606 6.48235,-2.664 0.29214,-0.1992 0.91255,-0.6418 0.52647,-1.0188 -0.46185,-0.2753 -1.0547,-0.2348 -1.57367,-0.2525 z"
         style="opacity:1;vector-effect:none;fill:#162d50;fill-opacity:1;stroke:none;stroke-width:0.19015872;stroke-linecap:round;stroke-linejoin:miter;stroke-miterlimit:4;stroke-dasharray:none;stroke-dashoffset:0;stroke-opacity:1" />
      <path
         transform="scale(0.26458333)"
         inkscape:connector-curvature="0"
         id="path65"
         d="m 555.03203,1058.5987 c -2.84316,0.079 -5.63518,0.6997 -8.41772,1.2383 -3.10239,0.608 -6.16236,1.4185 -9.26909,1.998 -3.00265,0.5253 -6.03874,0.7979 -9.07331,1.0713 -2.1139,0.257 -4.28151,0.4527 -6.27436,1.2529 -0.27868,0.1627 -0.79014,0.2616 -0.80136,0.6573 0.18037,0.3999 0.71815,0.4391 1.07672,0.6007 2.0846,0.7234 4.34233,0.7959 6.50468,0.4245 4.82484,-0.743 9.70575,-1.1183 14.53977,-1.823 3.49876,-0.5608 7.0204,-1.2051 10.33443,-2.4958 0.92215,-0.4155 1.97498,-0.8086 2.54957,-1.6931 0.31289,-0.4882 -0.0507,-1.2786 -0.66903,-1.2252 -0.16653,-0.01 -0.33356,-0.01 -0.5003,-0.01 z"
         style="opacity:1;vector-effect:none;fill:#162d50;fill-opacity:1;stroke:none;stroke-width:0.13446252;stroke-linecap:round;stroke-linejoin:miter;stroke-miterlimit:4;stroke-dasharray:none;stroke-dashoffset:0;stroke-opacity:1" />
      <path
         transform="scale(0.26458333)"
         inkscape:connector-curvature="0"
         id="path67"
         d="m 617.0279,1028.2644 c -0.45975,-0.044 -1.03206,0.2455 -0.99936,0.7683 0.27405,0.7488 0.85969,1.3421 1.31656,1.9849 2.30812,2.8822 4.74978,5.6727 7.46246,8.1827 0.22865,0.2213 0.69053,0.4881 0.91278,0.1117 0.47019,-0.8538 0.47585,-1.8741 0.55047,-2.823 0.0566,-1.5795 -0.005,-3.3549 -1.14212,-4.5832 -1.07783,-1.1092 -2.48558,-1.8291 -3.85594,-2.5099 -1.3287,-0.619 -2.76225,-1.1282 -4.24485,-1.1315 z"
         style="opacity:1;vector-effect:none;fill:#535d6c;fill-opacity:1;stroke:none;stroke-width:0.13446252;stroke-linecap:round;stroke-linejoin:miter;stroke-miterlimit:4;stroke-dasharray:none;stroke-dashoffset:0;stroke-opacity:1" />
      <path
         transform="scale(0.26458333)"
         inkscape:connector-curvature="0"
         id="path69"
         d="m 571.67843,1032.3599 c -1.02126,0.09 -1.92299,0.6785 -2.74141,1.2536 -2.33102,1.8631 -4.19634,4.2975 -6.7867,5.8308 -1.77188,1.0825 -3.83869,1.6367 -5.90512,1.747 -2.3924,0.1438 -4.83392,0.1383 -7.17672,-0.3865 -1.56633,-0.342 -2.84329,-1.35 -4.14748,-2.2181 -1.09127,-0.6813 -2.33803,-1.3172 -3.66047,-1.2393 -0.65615,0.02 -1.24338,0.5726 -1.20991,1.2468 -0.0297,1.1991 0.49105,2.3963 1.42255,3.1613 1.68459,1.4921 3.82583,2.357 5.95958,2.9879 1.76908,0.5114 3.61533,0.7186 5.45397,0.6329 3.63622,-0.076 7.16617,-1.2754 10.35892,-2.9615 2.9947,-1.5915 5.88862,-3.4525 8.32063,-5.8336 0.67468,-0.7295 1.44761,-1.49 1.67577,-2.492 0.149,-0.6948 -0.18613,-1.6584 -0.99432,-1.7114 -0.18898,-0.019 -0.3795,-0.027 -0.56929,-0.018 z"
         style="opacity:1;vector-effect:none;fill:#535d6c;fill-opacity:1;stroke:none;stroke-width:0.13446252;stroke-linecap:round;stroke-linejoin:miter;stroke-miterlimit:4;stroke-dasharray:none;stroke-dashoffset:0;stroke-opacity:1" />
      <path
         transform="scale(0.26458333)"
         inkscape:connector-curvature="0"
         id="path71"
         d="m 518.11755,1047.0294 c -0.45679,0.066 -0.74858,0.4781 -1.05952,0.7767 -0.47031,0.4734 -0.85414,1.029 -1.10535,1.6486 -0.51412,1.2225 -0.75607,2.5468 -0.84169,3.8653 -0.0155,1.216 -0.0676,2.4452 0.16823,3.6456 0.20231,1.1023 0.51277,2.2294 1.19731,3.137 0.54616,0.6604 1.37575,1.0379 2.20479,1.1939 0.71151,0.1202 1.48853,0.061 2.1212,-0.3087 0.43407,-0.263 0.76768,-0.7327 0.73986,-1.2569 -0.0268,-0.7383 -0.24094,-1.4541 -0.36904,-2.1784 -0.58284,-2.7655 -1.16891,-5.5314 -1.8437,-8.2762 -0.19006,-0.6665 -0.33178,-1.3709 -0.71339,-1.9607 -0.11428,-0.1613 -0.28992,-0.3018 -0.4987,-0.2862 z"
         style="opacity:1;vector-effect:none;fill:#535d6c;fill-opacity:1;stroke:none;stroke-width:0.06723126;stroke-linecap:round;stroke-linejoin:miter;stroke-miterlimit:4;stroke-dasharray:none;stroke-dashoffset:0;stroke-opacity:1" />
      <path
         transform="scale(0.26458333)"
         inkscape:connector-curvature="0"
         id="path73"
         d="m 89.094235,969.59624 c -1.743124,0.0235 -3.043845,1.38596 -4.269383,2.4548 -5.623371,5.39571 -10.909741,11.15822 -15.671617,17.33116 -3.198096,4.23899 -6.289297,8.65319 -8.278373,13.6073 -1.476388,3.9372 -1.794035,8.2005 -1.82303,12.3716 0.0043,4.9683 0.633688,9.9912 2.468634,14.6367 0.923406,2.2889 1.706758,4.7297 3.334456,6.636 1.255524,1.4708 3.296487,1.7282 5.113202,1.7799 2.799754,0.014 5.60568,-0.108 8.391675,-0.3875 0.96145,-0.1172 2.221225,-0.3433 2.513207,-1.4383 0.394532,-1.6674 0.173576,-3.4103 0.03233,-5.0974 -0.559486,-5.389 -2.355661,-10.6782 -1.879644,-16.1394 0.212427,-3.8299 1.431526,-7.5338 3.1655,-10.9328 1.581147,-3.2633 3.647671,-6.28767 5.072833,-9.62982 0.962351,-2.16476 2.486547,-4.05622 3.811205,-6.01921 3.51184,-4.98521 7.119912,-9.91909 10.23249,-15.16895 0.36716,-0.7535 0.94997,-1.49162 0.97555,-2.35372 -0.41072,-0.56283 -1.21403,-0.64284 -1.85786,-0.76457 -3.349652,-0.33997 -6.742835,-0.19334 -10.061183,-0.82336 -0.420709,-0.055 -0.84588,-0.0779 -1.269996,-0.0624 z"
         style="opacity:1;vector-effect:none;fill:#535d6c;fill-opacity:1;stroke:none;stroke-width:0.19015872;stroke-linecap:round;stroke-linejoin:miter;stroke-miterlimit:4;stroke-dasharray:none;stroke-dashoffset:0;stroke-opacity:1" />
      <path
         transform="scale(0.26458333)"
         inkscape:connector-curvature="0"
         id="path75"
         d="m 80.817003,1040.3911 c -1.890246,0.185 -3.743413,0.6409 -5.639958,0.7666 -1.491661,0.2422 -3.169369,-0.1662 -4.521398,0.6829 -0.859739,0.5605 -0.639932,1.7725 -0.09844,2.48 1.293036,1.8531 3.588327,2.7611 5.800202,2.7224 1.745952,-0.045 3.58479,-0.2826 5.101027,-1.206 0.722412,-0.6099 0.686027,-1.6737 0.810506,-2.5333 0.01473,-0.8653 0.158785,-1.8616 -0.369608,-2.6086 -0.274694,-0.29 -0.707894,-0.3135 -1.082331,-0.304 z"
         style="opacity:1;vector-effect:none;fill:#535d6c;fill-opacity:1;stroke:none;stroke-width:0.19015872;stroke-linecap:round;stroke-linejoin:miter;stroke-miterlimit:4;stroke-dasharray:none;stroke-dashoffset:0;stroke-opacity:1" />
      <path
         transform="scale(0.26458333)"
         inkscape:connector-curvature="0"
         id="path77"
         d="m 94.440322,1040.4069 c -1.842561,0.063 -3.746023,-0.041 -5.528011,0.5049 -1.60534,0.6474 -2.523861,2.8941 -1.426354,4.3521 0.961411,1.1034 2.586983,1.0511 3.925096,1.0556 3.406401,-0.149 6.79899,-0.8774 9.960657,-2.1555 1.83487,-0.8278 3.5106,-1.9686 5.20557,-3.045 0.27062,-0.075 0.23717,-0.4118 -0.0586,-0.3639 -4.02461,-0.1317 -8.048704,-0.3694 -12.078348,-0.3482 z"
         style="opacity:1;vector-effect:none;fill:#535d6c;fill-opacity:1;stroke:none;stroke-width:0.19015872;stroke-linecap:round;stroke-linejoin:miter;stroke-miterlimit:4;stroke-dasharray:none;stroke-dashoffset:0;stroke-opacity:1" />
      <path
         transform="scale(0.26458333)"
         inkscape:connector-curvature="0"
         id="path79"
         d="m 160.07954,1040.3422 c -2.145,0.034 -4.38078,-0.076 -6.42407,0.6828 -0.49958,0.1475 -0.67001,0.8751 -0.18366,1.1433 1.51051,0.912 3.31683,1.1126 5.0109,1.4859 1.86383,0.3238 3.7427,0.6237 5.62614,0.7478 1.71589,-0.09 3.38823,-0.8263 4.69021,-1.932 0.3946,-0.3028 0.60199,-0.9784 0.10871,-1.2954 -1.19018,-0.7097 -2.64988,-0.7015 -3.99429,-0.788 -1.61065,-0.055 -3.22261,-0.045 -4.83394,-0.044 z"
         style="opacity:1;vector-effect:none;fill:#535d6c;fill-opacity:1;stroke:none;stroke-width:0.19015872;stroke-linecap:round;stroke-linejoin:miter;stroke-miterlimit:4;stroke-dasharray:none;stroke-dashoffset:0;stroke-opacity:1" />
      <path
         transform="scale(0.26458333)"
         inkscape:connector-curvature="0"
         id="path81"
         d="m 183.02277,1038.2784 c -0.69433,0.044 -1.56322,0.2072 -1.937,0.8582 -0.26066,0.7309 0.58015,1.1963 1.17991,1.3035 1.014,0.2233 2.3363,0.1448 2.98123,-0.7784 0.26331,-0.5802 -0.45253,-1.0334 -0.91762,-1.1942 -0.41787,-0.147 -0.86499,-0.201 -1.30652,-0.1891 z"
         style="opacity:1;vector-effect:none;fill:#535d6c;fill-opacity:1;stroke:none;stroke-width:0.19015872;stroke-linecap:round;stroke-linejoin:miter;stroke-miterlimit:4;stroke-dasharray:none;stroke-dashoffset:0;stroke-opacity:1" />
      <path
         transform="scale(0.26458333)"
         inkscape:connector-curvature="0"
         id="path83"
         d="m 190.76153,984.30015 c -1.77939,0.0768 -3.59342,-0.1023 -5.34678,0.2701 -1.17032,0.21617 -2.2152,1.04048 -2.54243,2.20867 -0.72478,2.42287 -0.73159,4.98822 -0.80708,7.49612 -10e-4,3.48267 0.0766,7.00406 0.81971,10.41906 0.54807,1.8797 1.07151,3.7755 1.75984,5.6081 0.49372,0.715 1.48674,0.7576 2.25632,0.966 1.69073,0.3468 3.43843,0.3246 5.14833,0.1643 0.45999,-0.081 1.28329,-0.2295 1.1719,-0.8632 -0.40697,-1.0345 -1.39775,-1.69 -2.16185,-2.4512 -1.44893,-1.3899 -3.37087,-2.4237 -4.28309,-4.2871 -0.55172,-1.4205 -0.27204,-2.9878 -0.26376,-4.4694 0.0755,-1.4293 0.17744,-2.85702 0.26742,-4.28545 2.25546,0.0676 4.57843,0.57533 6.80479,-0.015 1.52688,-0.42801 2.50418,-2.03245 2.37893,-3.58249 0.11932,-2.41316 -0.45221,-4.77612 -0.86023,-7.13646 -0.62924,-0.18346 -1.38144,-0.0141 -2.05779,-0.0624 -0.76141,0.007 -1.52282,0.0135 -2.28423,0.0203 z"
         style="opacity:1;vector-effect:none;fill:#535d6c;fill-opacity:1;stroke:none;stroke-width:0.19015872;stroke-linecap:round;stroke-linejoin:miter;stroke-miterlimit:4;stroke-dasharray:none;stroke-dashoffset:0;stroke-opacity:1" />
      <path
         transform="scale(0.26458333)"
         inkscape:connector-curvature="0"
         id="path85"
         d="m 110.87733,977.29846 c -1.44443,-0.006 -2.99313,0.15466 -4.15773,1.09884 -1.40492,1.11884 -2.40101,2.64912 -3.42977,4.09892 -0.45063,0.72756 -1.00934,1.42443 -1.26286,2.25059 0.0268,0.35223 0.50159,0.38163 0.76545,0.47569 1.75991,0.38936 3.57901,0.27547 5.36723,0.24437 1.24139,-0.0509 2.5054,-0.47652 3.36228,-1.41045 1.26612,-1.34958 2.20956,-2.96344 3.14537,-4.54943 0.21693,-0.47572 0.60819,-0.93719 0.59868,-1.47863 -0.2229,-0.39105 -0.7632,-0.42367 -1.16119,-0.52025 -1.06544,-0.1734 -2.14954,-0.21398 -3.22746,-0.20965 z"
         style="opacity:1;vector-effect:none;fill:#00d400;fill-opacity:1;stroke:none;stroke-width:0.13446252;stroke-linecap:round;stroke-linejoin:miter;stroke-miterlimit:4;stroke-dasharray:none;stroke-dashoffset:0;stroke-opacity:1" />
      <path
         transform="scale(0.26458333)"
         inkscape:connector-curvature="0"
         id="path87"
         d="m 564.39803,1056.3284 c -1.3187,0.094 -2.79923,0.3083 -3.77485,1.2827 -0.71261,0.8647 -0.42505,2.1109 -0.18026,3.0998 0.85449,2.6664 2.25798,5.1187 3.64483,7.5374 3.43305,5.7549 8.04683,11.0364 14.0818,14.134 3.63286,1.879 7.68743,2.936 11.7684,3.1351 3.06432,0.039 6.15156,0 9.16564,-0.6139 4.17342,-0.7966 8.36674,-1.9528 12.02965,-4.1655 1.72543,-1.0449 2.90797,-2.7734 4.67282,-3.7702 3.06286,-1.8906 6.41241,-3.3844 9.92378,-4.1933 3.24196,-0.6466 6.57489,0.3428 9.48465,1.7411 2.87862,1.3792 5.31885,3.4843 7.58672,5.7015 2.20479,2.0698 4.96909,3.9185 8.10452,3.9065 2.59249,0 5.27699,-0.8241 7.21369,-2.5918 1.55766,-1.4251 1.59189,-3.8591 0.81779,-5.6943 -1.30696,-3.0719 -3.71238,-5.5071 -6.1396,-7.7277 -2.61261,-2.3254 -5.44152,-4.481 -8.70262,-5.8138 -6.86332,-2.8932 -14.65746,-3.3982 -21.89372,-1.728 -2.8947,0.6413 -5.55908,1.9671 -8.24155,3.1823 -6.36616,2.6879 -12.86809,5.0429 -19.43753,7.1879 -1.67121,0.481 -3.33278,1.1454 -5.05836,1.3154 -4.59295,-0.078 -9.03504,-1.925 -12.69787,-4.641 -3.13927,-2.3397 -5.77975,-5.3051 -7.88556,-8.5947 -0.8409,-1.2687 -2.02682,-2.5127 -3.62979,-2.6582 -0.28284,-0.033 -0.56816,-0.04 -0.85258,-0.031 z"
         style="opacity:1;vector-effect:none;fill:#c87137;fill-opacity:1;stroke:none;stroke-width:0.19015872;stroke-linecap:round;stroke-linejoin:miter;stroke-miterlimit:4;stroke-dasharray:none;stroke-dashoffset:0;stroke-opacity:1" />
      <path
         transform="scale(0.26458333)"
         inkscape:connector-curvature="0"
         id="path89"
         d="m 333.22947,984.49923 c -0.70784,-0.0191 -1.55658,0.29736 -1.67176,1.09137 -0.48793,2.25765 -0.29245,4.60024 -0.10636,6.88275 0.32182,3.048 0.88688,6.16542 2.51417,8.81635 3.49643,6.1991 7.30946,12.2234 11.42041,18.0334 0.99733,1.2898 1.86898,2.7378 3.17166,3.748 1.3477,0.7633 2.9208,0.9927 4.40783,1.3557 4.95932,1.0673 10.05646,1.2723 15.015,2.3331 1.01097,0.2595 1.98099,0.7722 3.06072,0.7127 3.96865,0.1279 7.9747,-0.092 11.85979,-0.9467 3.2549,-0.8226 6.33385,-2.3299 9.05131,-4.2929 1.31239,-1.0178 2.65551,-2.2319 3.16351,-3.8658 0.44237,-2.1234 -0.20748,-4.5464 -1.94691,-5.9256 -1.81919,-1.5115 -4.27775,-1.8541 -6.55693,-2.055 -5.23279,-0.2251 -10.59076,0.1461 -15.53209,2.0058 -3.39293,1.1816 -6.38895,3.1965 -9.52269,4.904 -1.11191,0.5415 -2.2134,1.2094 -3.44187,1.3671 -0.91108,-0.3436 -0.92437,-1.6075 -0.3435,-2.2613 1.16589,-1.5719 3.14684,-2.0862 4.85876,-2.8289 0.80708,-0.4002 1.76967,-0.7469 2.27161,-1.5387 0.12617,-0.6012 -0.65095,-0.8664 -1.05196,-1.1261 -5.25792,-2.6838 -11.32951,-3.4908 -16.34551,-6.6857 -2.78396,-1.7551 -4.81297,-4.48412 -6.07762,-7.48382 -1.12089,-2.43422 -1.75828,-5.04857 -2.74261,-7.53336 -0.88192,-1.95652 -2.317,-3.87609 -4.4062,-4.61578 -0.34184,-0.0851 -0.69842,-0.0905 -1.04876,-0.0906 z"
         style="opacity:1;vector-effect:none;fill:#d3bc5f;fill-opacity:1;stroke:none;stroke-width:0.19015872;stroke-linecap:round;stroke-linejoin:miter;stroke-miterlimit:4;stroke-dasharray:none;stroke-dashoffset:0;stroke-opacity:1" />
      <path
         transform="scale(0.26458333)"
         inkscape:connector-curvature="0"
         id="path91"
         d="m 324.85049,983.42681 c -1.04049,-0.0538 -1.71621,0.95037 -1.90012,1.86604 -0.47512,2.04469 -0.92019,4.10645 -1.73577,6.05065 -2.23135,5.55922 -5.2524,10.787 -8.76801,15.6271 -1.62407,2.1255 -3.27866,4.2985 -5.44735,5.8993 -1.788,1.1265 -3.67967,2.0905 -5.39023,3.3415 -0.85267,0.6045 -1.70281,1.2162 -2.51637,1.8721 -0.0371,0.3304 0.52553,0.3483 0.73811,0.5176 1.71067,0.7062 3.44549,1.39 4.92869,2.5203 1.4618,0.9716 2.65132,2.2783 3.8366,3.5573 -2.62117,-1.3085 -5.1661,-2.8298 -7.96382,-3.7401 -2.34878,-0.6761 -4.83463,-0.4801 -7.24372,-0.364 -3.73744,0.2865 -7.6569,1.2824 -10.46456,3.9034 -2.09875,1.9561 -3.03743,4.9082 -2.85776,7.7316 -0.01,1.1074 0.19123,2.3542 1.14478,3.0568 1.57195,1.1357 3.63743,1.02 5.48138,1.0263 5.41459,-0.1195 10.81374,-0.6216 16.22698,-0.7632 4.35092,-0.1576 8.70427,-0.2299 13.0572,-0.3058 0.36941,-0.681 0.46971,-1.5457 0.7366,-2.2967 1.951,-6.8027 4.53158,-13.3993 7.10906,-19.9803 1.10697,-2.805 2.35947,-5.552 3.71961,-8.2439 1.14286,-2.8007 1.43907,-5.8691 1.3694,-8.87066 0.0637,-2.61641 -0.15753,-5.2283 -0.60125,-7.80616 -0.26559,-1.357 -0.3765,-2.91287 -1.37827,-3.96591 -0.55776,-0.51294 -1.35083,-0.63676 -2.08118,-0.63326 z"
         style="opacity:1;vector-effect:none;fill:#d3bc5f;fill-opacity:1;stroke:none;stroke-width:0.19015872;stroke-linecap:round;stroke-linejoin:miter;stroke-miterlimit:4;stroke-dasharray:none;stroke-dashoffset:0;stroke-opacity:1" />
      <path
         transform="scale(0.26458333)"
         inkscape:connector-curvature="0"
         id="path93"
         d="m 330.2515,689.41621 c -1.27536,-0.044 -2.58053,0.18951 -3.67826,0.86687 -2.52517,1.54858 -4.06488,4.47356 -4.18769,7.40261 -7.8e-4,1.32372 0.22426,2.70228 0.90314,3.85665 0.52552,0.79049 1.57343,0.95539 2.45216,0.9889 1.2145,0.0189 2.48194,-0.15797 3.50059,-0.86875 1.17896,-0.7774 1.99601,-2.01717 2.3427,-3.37797 0.4388,-1.44959 0.67779,-2.95712 0.64056,-4.47364 -0.0301,-1.16081 0.0897,-2.34216 -0.12796,-3.48903 -0.13465,-0.47576 -0.52498,-0.93815 -1.06455,-0.89335 -0.25992,-0.0148 -0.52047,-0.0119 -0.78069,-0.0123 z"
         style="opacity:1;vector-effect:none;fill:#ffcc00;fill-opacity:1;stroke:none;stroke-width:0.13446252;stroke-linecap:round;stroke-linejoin:miter;stroke-miterlimit:4;stroke-dasharray:none;stroke-dashoffset:0;stroke-opacity:1" />
      <path
         transform="scale(0.26458333)"
         inkscape:connector-curvature="0"
         id="path95"
         d="m 292.99194,653.31883 c -2.1,0.85809 -3.75087,2.55847 -5.57253,3.87816 -7.09882,5.85832 -14.24318,11.67745 -21.85861,16.86012 -6.92807,4.87614 -14.15267,9.34465 -20.79546,14.61641 -7.95736,5.38238 -17.07915,8.85784 -24.77682,14.65153 -2.09639,1.69975 -4.49008,3.70075 -4.87468,6.5411 -0.0722,1.88727 -0.24268,4.20088 1.4942,5.45264 2.67793,2.01642 5.41659,3.96287 7.91449,6.21089 3.70153,3.24627 7.78352,6.10515 11.10117,9.7636 1.86963,3.24101 4.78427,5.7084 7.29536,8.43714 4.72236,4.78385 9.01635,10.04514 14.43926,14.08711 5.45055,4.10224 11.06343,8.13815 17.3413,10.88349 1.66611,0.72299 3.59874,1.21413 5.32278,0.36907 4.82504,-2.03487 9.1156,-5.27505 12.68481,-9.0846 0.99258,-1.04712 2.16836,-2.67781 1.15227,-4.09922 -2.76541,-3.79314 -6.55236,-6.68905 -10.14323,-9.65543 -7.2896,-5.67215 -14.94829,-10.9664 -23.25338,-15.04892 -3.70102,-1.94641 -8.0134,-2.83245 -11.26577,-5.55605 -0.88549,-0.74837 -1.95282,-2.0841 -0.99833,-3.20647 3.30865,-4.70099 7.53793,-8.66725 11.91208,-12.36289 2.37434,-2.02884 5.32051,-3.19697 7.74442,-5.16896 1.58631,-1.03064 3.10407,-2.46571 5.03415,-2.77138 0.93514,-0.0495 0.65629,0.95927 0.29637,1.42235 -2.84457,5.00425 -6.15187,9.76337 -8.4325,15.06986 -1.16896,2.68238 -2.80398,5.20639 -3.55298,8.05026 -0.3393,1.16361 0.49389,2.1646 1.50793,2.61373 11.0167,5.59138 20.64826,13.4681 29.83205,21.64263 3.36181,2.80431 6.59748,5.84246 10.38239,8.07547 2.67476,1.32781 5.84794,1.85485 8.77343,1.18999 1.19738,-0.43752 2.12606,-1.67301 3.53189,-1.29607 2.96252,0.13955 5.46366,2.1204 7.50617,4.10474 2.05881,2.04259 4.27507,4.27932 7.29556,4.69089 4.56895,0.85687 9.32695,1.55418 13.44287,3.84999 7.25163,4.6472 13.47853,10.68971 19.48256,16.81528 3.6645,3.65315 5.92639,8.46672 9.64752,12.05865 1.40215,1.36925 3.48605,0.82529 5.04485,0.0692 5.35108,-2.22311 10.04457,-6.08706 12.92501,-11.14925 5.44827,-9.19365 6.51768,-20.24692 5.86192,-30.72023 -0.36513,-4.64562 -0.80276,-9.30659 -1.69261,-13.88301 -1.64721,-4.65212 -4.48498,-8.76562 -7.09124,-12.9198 -3.75276,-5.81205 -7.97072,-11.30519 -12.12223,-16.82608 -1.95982,-2.58109 -2.9179,-5.69934 -4.15987,-8.64583 -1.85577,-2.95012 -5.13091,-4.5582 -7.87233,-6.54967 -1.17311,-0.90949 -2.64897,-1.66799 -3.47449,-2.88921 1.71413,0.40427 3.20938,1.57983 4.74637,2.43945 10.55649,7.04048 22.96663,10.44292 34.10464,16.37865 6.06034,3.05593 11.59399,7.02623 16.89087,11.25179 7.53585,5.55463 15.18926,10.97971 23.20702,15.82094 4.44879,2.01261 7.58171,6.03833 11.93734,8.19616 1.41358,0.78686 3.51648,0.62324 4.31367,-0.94823 1.3656,-2.59755 1.48285,-5.67645 3.11394,-8.15705 1.65912,-3.05396 4.4743,-5.40709 5.70682,-8.69413 0.4667,-1.24908 -1.09031,-1.82665 -1.85743,-2.42263 -4.22008,-2.52938 -8.91939,-4.11338 -13.40243,-6.10112 -11.72084,-4.88399 -23.62322,-9.81916 -33.7969,-17.57151 -12.06675,-9.05541 -22.59984,-19.93349 -34.07857,-29.69496 -5.07266,-4.35679 -10.22459,-8.65027 -14.78284,-13.55838 -0.97132,-1.00632 -2.5205,-2.11531 -3.89923,-1.13598 -4.35411,2.71266 -7.69898,6.76798 -12.09606,9.42761 -4.75896,3.03037 -9.85131,5.76265 -15.3732,7.06877 -6.79249,1.2725 -13.64384,-0.78059 -19.91623,-3.27204 -6.56244,-2.74796 -13.2219,-6.17456 -17.65328,-11.93633 -1.59729,-1.89185 -1.93203,-4.52334 -3.54481,-6.38504 -0.17773,-0.15766 -0.4031,-0.29348 -0.64944,-0.27723 z m 37.89812,32.38019 c 1.1336,0.17947 1.75514,1.38475 2.47355,2.16988 2.32624,3.14549 1.9065,7.47166 0.23132,10.80766 -1.25622,2.48708 -2.92899,5.15475 -5.65428,6.20144 -2.43898,0.86591 -4.79088,-0.97725 -6.13779,-2.85688 -1.16757,-1.62002 -2.21565,-3.74945 -1.3187,-5.75794 1.41043,-3.59391 4.11007,-6.57789 7.11733,-8.93345 1.00481,-0.65876 2.08548,-1.41827 3.28857,-1.63071 z m 5.58471,37.72767 c 5.78706,-0.0456 11.75621,0.4659 17.07867,2.90071 1.34043,0.81469 2.69831,1.9055 3.3877,3.35013 0.0505,0.81955 -0.99734,0.1511 -1.35487,0.004 -2.69529,-1.45943 -5.40645,-3.31987 -8.61048,-3.26383 -6.39283,-0.16141 -12.80949,-0.0696 -19.17934,0.51981 -4.85976,0.69814 -9.14219,3.32297 -13.44938,5.50837 -3.62203,1.98325 -7.28414,4.18619 -9.72829,7.61232 -1.23024,1.43431 -2.31052,3.2158 -4.05974,4.05487 -0.31067,0.0906 -1.38326,0.0868 -0.92319,-0.48524 2.36442,-3.18633 5.22576,-6.00508 8.23706,-8.57482 6.48812,-4.78025 13.7114,-8.64385 21.38434,-11.13394 2.35056,-0.60561 4.81361,-0.4539 7.21752,-0.49255 z"
         style="opacity:1;vector-effect:none;fill:#cdde87;fill-opacity:1;stroke:none;stroke-width:0.38031745;stroke-linecap:round;stroke-linejoin:miter;stroke-miterlimit:4;stroke-dasharray:none;stroke-dashoffset:0;stroke-opacity:1" />
      <path
         transform="scale(0.26458333)"
         inkscape:connector-curvature="0"
         id="path97"
         d="m 249.56694,751.27226 c -0.76782,0.12847 -1.23015,0.87113 -1.63371,1.4678 -1.00328,1.71363 -1.47593,3.67269 -1.95092,5.58303 -1.43968,6.40752 -1.7601,12.99851 -1.92646,19.54327 0.0182,1.69745 -0.0958,3.47292 0.53322,5.08548 0.61153,1.35041 1.74587,2.37982 2.86194,3.31636 0.73298,0.54651 1.51039,1.16997 2.44749,1.27853 0.92949,-0.1976 1.68714,-0.84245 2.46397,-1.35417 2.52495,-1.81907 4.70492,-4.05507 7.15143,-5.97125 2.79965,-2.2971 5.75087,-4.3967 8.72323,-6.46165 1.63296,-1.19115 3.26863,-2.44135 4.53093,-4.03576 0.40067,-0.46992 0.67362,-1.15851 0.34325,-1.74181 -0.63371,-1.10492 -1.65984,-1.9206 -2.64524,-2.69973 -2.17713,-1.6118 -4.57204,-2.89236 -6.79282,-4.43728 -3.01915,-2.00424 -5.91112,-4.18841 -8.77537,-6.40798 -1.52858,-1.10246 -3.03929,-2.28114 -4.77395,-3.04506 -0.17827,-0.0645 -0.36478,-0.12827 -0.55699,-0.11978 z"
         style="opacity:1;vector-effect:none;fill:#cdde87;fill-opacity:1;stroke:none;stroke-width:0.13446252;stroke-linecap:round;stroke-linejoin:miter;stroke-miterlimit:4;stroke-dasharray:none;stroke-dashoffset:0;stroke-opacity:1" />
      <path
         transform="scale(0.26458333)"
         inkscape:connector-curvature="0"
         id="path99"
         d="m 322.21144,778.82096 c -2.14711,0.008 -4.28186,0.60338 -6.11074,1.73171 -1.11345,0.71405 -2.36889,1.29763 -3.70933,1.30154 -1.15883,0.11215 -2.26978,-0.42163 -3.43972,-0.25716 -1.73703,0.1575 -3.16562,1.24018 -4.58874,2.14286 -1.30923,0.85238 -2.92795,1.25533 -4.48756,1.0107 -1.06255,-0.19255 -2.18751,-0.3119 -3.27169,-0.15461 -0.3201,0.0955 -0.73732,0.16669 -0.90553,0.47988 -0.98208,0.41993 -2.08848,0.44016 -3.13476,0.54482 -3.72108,0.26553 -7.48728,-0.231 -11.18981,0.35959 -2.69913,0.47236 -5.09883,1.88428 -7.48963,3.14635 -3.41447,1.91783 -6.76271,4.02868 -9.64696,6.6966 -0.84185,0.84812 -1.78354,1.724 -2.15023,2.89626 -0.25064,1.27943 0.62691,2.43879 1.54602,3.22166 1.98378,1.65538 4.36925,2.72486 6.68769,3.81936 5.06493,2.32246 10.31206,4.31059 15.77792,5.45375 5.82681,1.26835 11.7761,1.80719 17.68973,2.48041 1.90279,0.26355 3.84398,0.44252 5.67701,1.03069 1.03793,0.46245 2.22204,0.42648 3.33634,0.54369 4.84417,0.27966 9.70041,0.27549 14.55091,0.23191 4.44181,-0.0969 8.98608,-0.16917 13.23134,-1.63607 3.78821,-1.33376 7.6127,-2.56472 11.50048,-3.57236 1.5371,-0.45048 3.13805,-0.84644 4.49612,-1.72813 0.29742,-0.17095 0.4673,-0.51712 0.31704,-0.846 -0.6317,-1.98895 -2.15377,-3.50846 -3.43454,-5.09445 -3.79188,-4.4571 -7.2284,-9.23499 -11.43775,-13.32208 -3.70277,-3.58575 -7.81779,-6.88318 -12.59122,-8.92171 -2.28115,-0.95792 -4.73479,-1.59266 -7.22239,-1.55921 z"
         style="opacity:1;vector-effect:none;fill:#cdde87;fill-opacity:1;stroke:none;stroke-width:0.13446252;stroke-linecap:round;stroke-linejoin:miter;stroke-miterlimit:4;stroke-dasharray:none;stroke-dashoffset:0;stroke-opacity:1" />
      <path
         transform="scale(0.26458333)"
         inkscape:connector-curvature="0"
         id="path101"
         d="m 347.12636,815.31368 c -6.38033,0.56688 -12.64729,2.0532 -18.90742,3.35744 -0.44852,1.62414 -0.13891,3.56881 -0.29272,5.29756 -0.40701,24.22916 0.23464,48.45761 0.22979,72.68742 0.18665,26.97717 0.0447,53.95756 0.41713,80.93277 0.0286,1.33948 -0.12767,3.10576 1.44136,3.65063 3.09278,1.39741 6.64231,1.20089 9.94097,1.41037 0.42219,-1.65636 0.17432,-3.61102 0.38405,-5.36277 0.55327,-15.25562 2.19928,-30.43199 3.49641,-45.63264 1.16126,-13.41561 1.49004,-26.89362 2.71641,-40.30024 1.19362,-10.24267 1.08078,-20.58368 1.50721,-30.87531 0.4456,-11.78782 0.48803,-23.61685 1.62103,-35.36179 0.71191,-3.06341 0.51216,-6.43632 -0.84672,-9.29921 -0.3416,-0.59243 -1.13183,-0.48929 -1.7075,-0.50423 z"
         style="opacity:1;vector-effect:none;fill:#d4aa00;fill-opacity:1;stroke:none;stroke-width:0.53785008;stroke-linecap:round;stroke-linejoin:miter;stroke-miterlimit:4;stroke-dasharray:none;stroke-dashoffset:0;stroke-opacity:1" />
      <path
         transform="scale(0.26458333)"
         inkscape:connector-curvature="0"
         id="path103"
         d="m 300.62843,816.60451 c -1.26867,0.0896 -3.37829,-0.46301 -2.58658,1.56287 0.89107,8.36613 2.16644,16.705 3.82674,24.95278 2.67263,12.26135 3.94108,24.78779 6.66725,37.04504 1.51787,10.04307 2.50122,20.1821 4.5818,30.1413 2.16562,11.58648 2.49526,23.47996 5.31431,34.94471 0.65674,4.40733 0.4765,8.97873 2.10879,13.20849 2.03829,5.98023 1.87958,12.36347 3.00829,18.5236 -0.0793,0.6367 0.72126,0.9251 0.82596,0.19284 1.02036,-4.00954 0.65382,-8.23178 0.89652,-12.33343 0.51218,-35.84132 0.2597,-71.68845 0.27261,-107.53227 -0.0188,-12.93487 -0.0376,-25.86974 -0.0564,-38.80461 -6.24116,-0.64527 -12.64683,-1.09085 -18.95477,-1.63629 -1.96546,-0.12608 -3.93398,-0.27431 -5.90454,-0.26503 z"
         style="opacity:1;vector-effect:none;fill:#d4aa00;fill-opacity:1;stroke:none;stroke-width:0.53785008;stroke-linecap:round;stroke-linejoin:miter;stroke-miterlimit:4;stroke-dasharray:none;stroke-dashoffset:0;stroke-opacity:1" />
      <path
         inkscape:connector-curvature="0"
         id="path34"
         d="m 152.97644,287.36258 c -1.25707,-0.78989 -3.86516,-3.50847 -4.67932,-4.87756 -0.74089,-1.24586 -1.04736,-1.32475 -2.76796,-0.71253 -0.63676,0.22657 -2.55045,0.53734 -4.25265,0.69061 l -3.09489,0.27866 -1.19088,-0.97583 c -1.28193,-1.05045 -1.90643,-2.38178 -1.63135,-3.47778 0.38371,-1.52886 3.47514,-4.06553 4.96658,-4.07534 0.33322,-0.002 1.08211,-0.16888 1.66419,-0.37042 0.82315,-0.28501 1.07694,-0.51931 1.14205,-1.05435 0.0747,-0.61346 -0.007,-0.68791 -0.75302,-0.68791 -0.46022,0 -1.47768,0.18632 -2.26103,0.41405 -0.78335,0.22772 -1.81371,0.37655 -2.28968,0.33072 -0.75724,-0.0729 -0.94613,-0.25693 -1.51127,-1.47238 -0.58041,-1.24829 -0.73097,-1.38906 -1.48567,-1.38906 -2.03735,0 -3.84874,-3.16065 -4.27641,-7.46182 -0.10653,-1.0713 -0.0301,-1.33776 0.55041,-1.91823 1.60115,-1.60116 3.18793,-0.41479 3.72133,2.78229 0.14599,0.87504 0.25414,0.96769 1.50315,1.28781 1.62523,0.41653 1.89832,0.23033 2.39248,-1.63127 0.33699,-1.26953 0.13364,-3.10201 -0.60234,-5.42805 -0.25849,-0.81694 -0.33718,-0.8599 -1.57544,-0.8599 -1.3916,0 -2.98307,-0.67799 -3.52884,-1.50334 -0.68149,-1.03057 -1.06493,-2.74593 -0.73272,-3.27788 0.50437,-0.80762 0.36053,-1.39782 -0.48442,-1.98773 -0.43426,-0.30319 -1.0851,-1.13499 -1.4463,-1.84846 l -0.65674,-1.29721 0.75074,-0.92967 c 1.12339,-1.39114 1.87621,-1.56307 3.02095,-0.68993 0.83596,0.63761 1.18667,0.7204 3.2395,0.76472 l 2.30205,0.0497 0.77911,-0.92395 0.77912,-0.92396 -0.15484,-7.67291 c -0.0852,-4.22011 -0.21207,-12.07823 -0.28202,-17.4625 -0.0699,-5.38427 -0.24338,-10.50396 -0.38541,-11.37709 -0.4862,-2.9891 -0.80451,-8.20279 -0.81574,-13.36145 -0.0128,-5.86588 -0.51839,-10.65449 -1.2051,-11.41329 -0.68734,-0.7595 -1.07357,-0.60074 -1.85825,0.76381 -0.39749,0.69122 -1.15176,1.91161 -1.67616,2.71198 -2.37449,3.62403 -3.32914,6.20617 -2.53743,6.86324 0.37804,0.31374 0.36465,0.43353 -0.13969,1.24956 -0.41896,0.6779 -0.51486,1.13149 -0.38526,1.82229 0.13233,0.70541 0.0748,0.95723 -0.24676,1.08063 -0.23061,0.0885 -0.59168,0.49425 -0.80236,0.90167 -0.21543,0.41659 -0.84799,0.9459 -1.44543,1.20948 -0.58429,0.25779 -1.06392,0.65416 -1.06583,0.88082 -0.002,0.22665 -0.74606,1.78469 -1.65365,3.4623 -0.90759,1.67761 -1.88829,3.49847 -2.17933,4.04636 -0.29104,0.54788 -1.12448,1.69718 -1.85208,2.55399 -0.72761,0.85681 -2.03729,2.40434 -2.91042,3.43895 -1.86758,2.21298 -3.52403,3.5538 -6.2236,5.0377 -1.66923,0.91754 -2.2787,1.10501 -4.03198,1.24021 -1.2293,0.0948 -2.30286,0.048 -2.65183,-0.11567 -1.63833,-0.76827 -3.86484,-1.65695 -4.15132,-1.65695 -0.51433,0 -3.736522,-1.83117 -4.946222,-2.81093 -1.17813,-0.9542 -1.66051,-1.05532 -2.92745,-0.61366 l -0.802,0.27958 -0.1614,3.75532 c -0.0888,2.06542 -0.22454,6.1961 -0.30173,9.17927 -0.0772,2.98318 -0.19818,5.95974 -0.26889,6.61459 -0.0707,0.65484 -0.26379,3.51234 -0.42909,6.35 -0.38152,6.54919 -0.37494,6.45942 -0.72751,9.92187 -0.163,1.60073 -0.40503,4.62687 -0.53784,6.72476 -0.22057,3.48412 -0.19693,3.9334 0.27305,5.18953 0.56813,1.51846 1.09502,2.10102 2.09093,2.31185 0.74673,0.15808 2.0807,0.62487 3.41195,1.19392 0.89146,0.38105 1.1293,0.37104 4.393262,-0.18498 1.15486,-0.19673 1.47418,-0.14311 2.51355,0.42202 2.65244,1.4422 2.77524,2.45732 0.50603,4.18307 -0.88584,0.67369 -1.88854,1.33055 -2.22821,1.4597 -0.99882,0.37975 -3.250872,0.33961 -6.083032,-0.10841 -1.45521,-0.2302 -2.78066,-0.41925 -2.94544,-0.42011 -0.42587,-0.002 -2.47852,-2.108 -2.47852,-2.54267 0,-0.48243 -2.17181,-3.51187 -2.53069,-3.53004 -0.27262,-0.0138 -1.17348,1.60104 -1.17348,2.10354 0,0.13627 -0.29941,0.90235 -0.66537,1.70241 -0.36595,0.80005 -0.7413,2.00869 -0.83412,2.68586 -0.30866,2.25192 -0.64965,2.41931 -5.51197,2.70574 -4.63712,0.27316 -5.25955,0.15553 -6.11913,-1.15635 -0.40592,-0.61951 -0.40395,-0.73489 0.029,-1.69491 0.67312,-1.49273 1.61969,-2.27646 3.69111,-3.05614 1.00727,-0.37914 2.1561,-0.92054 2.55296,-1.20313 0.39684,-0.28258 0.85806,-0.51378 1.02491,-0.51378 0.52938,0 2.07979,-1.91212 2.96583,-3.65777 0.79141,-1.5592 0.86381,-1.92145 0.96798,-4.84319 0.0915,-2.5657 0.009,-3.5905 -0.43813,-5.46443 -0.69645,-2.91678 -1.28036,-6.5413 -1.63617,-10.15611 -0.15281,-1.55239 -0.45493,-3.50247 -0.67138,-4.3335 -0.21646,-0.83103 -0.50782,-2.61288 -0.64748,-3.95967 -0.13965,-1.34679 -0.3704,-2.75509 -0.51277,-3.12956 -0.14238,-0.37446 -0.44528,-2.02544 -0.67312,-3.66883 -0.38483,-2.77572 -0.53279,-3.66516 -1.16831,-7.02288 -0.13083,-0.69122 -0.37212,-1.97115 -0.53621,-2.84427 -0.55503,-2.95346 -0.45535,-2.77813 -1.57929,-2.77813 -0.56121,0 -1.69342,-0.29765 -2.51604,-0.66146 -0.82263,-0.3638 -1.77389,-0.66145 -2.11391,-0.66145 -0.34003,0 -0.90218,-0.22129 -1.24923,-0.49176 -0.96385,-0.75116 -2.3625,-1.41244 -2.70744,-1.28008 -0.27062,0.10385 -0.83624,0.97505 -2.92108,4.4992 -2.9396,4.96902 -4.34308,9.54297 -5.69854,18.57159 -0.35156,2.34177 -0.36564,8.54005 -0.0248,10.94294 0.81682,5.75934 0.4937,10.70215 -0.91051,13.9279 -1.0987,2.52395 -2.08934,4.3683 -2.58993,4.82186 -0.27866,0.25248 -0.46197,0.79827 -0.46038,1.37071 10e-4,0.52315 -0.26644,1.84415 -0.59531,2.93555 -0.51744,1.71715 -0.80374,2.18925 -2.12605,3.50573 -0.84046,0.83675 -1.71771,1.52136 -1.94945,1.52136 -0.23174,0 -0.82817,0.35718 -1.32538,0.79375 -1.0472,0.91945 -1.34611,0.9604 -2.43766,0.33394 -0.7881,-0.45231 -0.81327,-0.44852 -1.54279,0.23225 -1.16977,1.0916 -1.85233,1.34538 -3.07654,1.14391 -1.59871,-0.26311 -2.82447,-0.82717 -2.82447,-1.29973 0,-0.24699 -0.23701,-0.41332 -0.59531,-0.41778 -0.32742,-0.004 -2.77036,-0.0677 -5.42876,-0.14142 -3.99297,-0.11072 -4.85821,-0.0695 -4.97586,0.23709 -0.0783,0.20412 -0.71787,0.744 -1.42122,1.19976 -1.59026,1.03045 -3.47287,1.15158 -4.3975,0.28293 l -0.580876,-0.54571 -0.73158,0.678 c -0.42001,0.38926 -1.04452,0.67801 -1.46639,0.67801 -0.78677,0 -2.36292,-1.14397 -2.36292,-1.71501 0,-0.18977 -0.16332,-0.40772 -0.36295,-0.48432 -0.72296,-0.27743 -2.17682,-3.97467 -2.42478,-6.16632 -0.32009,-2.82922 0.37587,-4.33627 4.26382,-9.23299 1.04156,-1.31181 2.39537,-2.83829 3.00847,-3.3922 1.097856,-0.99184 1.139446,-1.00469 2.746856,-0.84887 2.82621,0.27397 4.75492,0.45157 6.39463,0.58882 0.87312,0.0731 2.71859,-0.006 4.10104,-0.1768 4.58117,-0.56441 7.75264,-0.77285 12.67376,-0.83296 l 4.86855,-0.0595 0.62047,0.77516 c 0.34125,0.42633 0.70036,1.19187 0.798,1.7012 l 0.17754,0.92604 0.38373,-0.92604 c 0.21105,-0.50933 0.48078,-1.64042 0.59941,-2.51355 0.11864,-0.87312 0.33641,-2.48284 0.48395,-3.57714 0.17125,-1.27022 0.18175,-2.90386 0.029,-4.51798 -0.39526,-4.17788 -0.34146,-15.72836 0.0818,-17.56946 1.49794,-6.51505 2.20852,-8.927 3.27383,-11.1125 1.71978,-3.52812 3.24732,-6.05136 4.58487,-7.5734 0.65484,-0.74517 1.22895,-1.45528 1.2758,-1.57803 0.0469,-0.12275 -0.34011,-0.78015 -0.8599,-1.4609 -0.86599,-1.13415 -0.94453,-1.38398 -0.9386,-2.98561 0.008,-2.09947 0.33341,-3.70397 1.08843,-5.36291 0.3477,-0.76399 0.49749,-1.46921 0.39337,-1.85209 -0.2396,-0.88106 -4.4094,-5.08286 -6.98157,-7.03515 -2.70409,-2.05242 -2.80396,-2.52278 -0.92284,-4.34642 0.69122,-0.67011 1.67348,-1.42413 2.18281,-1.67561 0.50932,-0.25148 1.10463,-0.60149 1.32291,-0.7778 0.21829,-0.17632 1.05172,-0.59056 1.85209,-0.92054 0.80036,-0.32998 1.87192,-0.99169 2.38125,-1.47045 0.50932,-0.47877 1.34276,-1.07843 1.85208,-1.33257 0.50932,-0.25415 1.35155,-0.83282 1.87161,-1.28593 0.52006,-0.45311 1.47256,-1.15079 2.11667,-1.5504 1.97737,-1.22679 3.83521,-2.65951 4.97617,-3.8375 0.59902,-0.61846 1.20485,-1.12448 1.34629,-1.12448 0.15184,0 0.25516,-1.244 0.25228,-3.03747 -0.008,-5.05036 0.80966,-8.00528 3.69238,-13.34203 1.13608,-2.10323 1.84826,-3.07169 3.01579,-4.10104 3.09121,-2.72536 6.23728,-2.98931 9.16545,-0.76897 1.32557,1.00515 3.99045,3.98308 3.99045,4.45923 0,0.17311 0.22536,0.60125 0.5008,0.95142 0.64846,0.82438 1.78341,4.21408 1.99143,5.94769 0.10313,0.85947 0.008,2.01841 -0.25991,3.17466 -0.42305,1.82418 -2.06121,6.0987 -2.51825,6.57099 -0.67896,0.70161 -0.20999,1.57967 1.93957,3.63147 1.20055,1.14595 2.599532,2.40609 3.108862,2.80032 0.50932,0.39422 1.87854,1.65627 3.0427,2.80454 1.90388,1.87788 3.29174,3.0138 6.61459,5.41387 0.58208,0.42043 2.12989,1.20809 3.43958,1.75035 1.30969,0.54226 3.69094,1.56125 5.29167,2.26444 1.60073,0.70317 3.38666,1.34975 3.96875,1.43684 1.02204,0.1529 1.07394,0.12406 1.51345,-0.84101 0.25031,-0.54963 0.58664,-1.37663 0.7474,-1.83777 0.32574,-0.93442 1.0557,-1.51088 2.24359,-1.77178 0.58687,-0.1289 0.93856,-0.464 1.35539,-1.29147 0.30959,-0.61457 1.12359,-2.2485 1.80888,-3.63095 1.31645,-2.65569 3.13685,-5.03143 4.48547,-5.85383 0.50577,-0.30842 1.30883,-0.49456 2.13634,-0.49518 3.51289,-0.003 6.56068,4.25607 6.12136,8.5534 -0.2165,2.11773 -0.4762,3.45621 -0.73289,3.77718 -0.25238,0.3156 -0.13862,33.21505 0.11628,33.6275 0.0831,0.13445 0.17122,1.36796 0.19582,2.74114 0.0246,1.37317 0.20987,3.2482 0.41171,4.16673 0.20185,0.91854 0.36699,2.42053 0.36699,3.33776 0,2.64068 1.06937,3.61713 2.91571,2.66236 0.83798,-0.43334 1.31762,-1.13034 1.31762,-1.91475 0,-0.47723 1.26753,-1.91897 1.68709,-1.91897 0.42373,0 2.80804,2.53511 2.8094,2.9871 0.003,0.99803 -1.08171,2.49395 -2.84898,3.92896 -1.01066,0.82065 -2.08734,1.62577 -2.39261,1.78915 -0.65879,0.35257 -1.02712,1.92371 -0.64672,2.7586 0.1442,0.31647 0.87353,1.30706 1.62075,2.2013 0.74721,0.89425 1.35857,1.68935 1.35857,1.7669 0,0.0775 0.45665,0.83401 1.01477,1.68105 2.31005,3.50586 3.3641,6.94743 3.16757,10.34242 -0.0679,1.1736 -0.31155,2.4519 -0.56351,2.95697 -0.2441,0.48932 -0.44383,1.05486 -0.44383,1.25674 0,0.7035 -1.6525,3.53546 -2.82206,4.8363 -0.64788,0.72059 -1.28999,1.70078 -1.42691,2.17819 -0.2661,0.92787 -0.33576,2.32673 -0.11585,2.32673 0.71705,0 9.51219,-1.12446 10.31795,-1.31915 2.0105,-0.48579 3.39949,-0.33638 4.52436,0.48667 1.22397,0.89556 1.74247,1.49365 2.1772,2.51141 0.30051,0.70353 0.25616,0.81776 -0.67644,1.74246 -0.80069,0.7939 -1.54737,1.16295 -3.77616,1.86636 -1.52797,0.48223 -3.15331,1.03758 -3.61187,1.2341 -0.45855,0.19653 -1.11339,0.35966 -1.4552,0.36252 -0.34181,0.003 -1.57398,0.17731 -2.73814,0.38765 -1.16417,0.21034 -2.2655,0.38659 -2.4474,0.39167 -0.49392,0.0138 -0.4017,0.4279 0.26459,1.18817 0.38025,0.43389 1.1594,0.8241 2.15683,1.08019 1.39485,0.35811 1.70866,0.35813 2.94017,1.1e-4 0.75826,-0.22043 1.72246,-0.58008 2.14265,-0.79922 0.4202,-0.21913 0.91412,-0.39916 1.0976,-0.40006 0.18349,-7.9e-4 0.83833,-0.23761 1.45521,-0.52604 2.94903,-1.37885 5.06345,-1.62015 7.71882,-0.88086 1.39013,0.38702 1.87922,0.71557 3.65538,2.45549 1.18677,1.16255 2.05011,2.22817 2.04953,2.52975 -0.002,1.01244 -0.98126,2.19998 -2.05205,2.48832 -1.37238,0.36954 -2.43946,0.0279 -4.004,-1.28203 -1.38505,-1.15963 -2.33478,-1.61126 -3.38834,-1.61126 -1.18007,0 -2.76115,0.60558 -3.49372,1.33814 -1.39079,1.39079 -2.69494,1.7923 -6.37548,1.96279 -1.96339,0.091 -2.36578,0.0308 -3.16893,-0.47389 z m 6.07935,-0.46155 c 1.48117,-0.33266 2.72924,-0.90235 3.18807,-1.4552 0.57715,-0.69542 2.81588,-1.70404 3.78228,-1.70404 1.30074,0 2.68072,0.65524 3.85672,1.83125 1.23878,1.23877 2.26379,1.51919 3.56531,0.97538 1.78836,-0.74722 1.14157,-2.53917 -1.68736,-4.67488 -2.23279,-1.68564 -6.12464,-1.97248 -8.73627,-0.64388 -1.31627,0.66962 -6.45835,2.51213 -7.01084,2.51213 -2.03629,0 -4.19604,-1.37269 -5.51577,-3.50573 -0.44004,-0.71122 -1.02996,-0.88995 -1.87155,-0.567 -0.59074,0.22669 -0.50732,0.82625 0.33159,2.38312 2.28904,4.24807 5.62991,5.85232 10.09782,4.84885 z m -16.47896,-5.2625 c 2.93274,-0.31193 5.00245,-0.99477 4.50945,-1.48777 -0.15032,-0.15032 -1.8768,0.13411 -4.30237,0.70878 -0.58208,0.13792 -1.71318,0.29804 -2.51354,0.35584 -0.80037,0.0578 -1.69333,0.19793 -1.98438,0.31139 -0.49758,0.19397 -0.48968,0.2178 0.1323,0.39923 0.3638,0.10612 0.95911,0.13688 1.32291,0.0684 0.3638,-0.0685 1.63984,-0.22864 2.83563,-0.35583 z m -4.61846,-1.33645 c -0.0347,-0.21821 -0.21815,-1.08846 -0.40773,-1.93388 -0.33099,-1.47604 -0.36267,-1.51728 -0.79686,-1.0375 -0.50962,0.56313 -0.6019,2.19734 -0.16968,3.00496 0.33142,0.61926 1.47357,0.59135 1.37427,-0.0336 z m 3.10575,0.009 c 0.80036,-0.13902 2.88396,-0.55857 4.63021,-0.93234 2.90913,-0.62266 4.87606,-1.01056 8.46666,-1.66972 0.72761,-0.13358 3.31722,-0.76334 5.75469,-1.39947 5.02793,-1.3122 5.0944,-1.3738 3.40212,-3.15276 -0.98615,-1.03665 -1.08397,-1.07663 -2.31511,-0.94617 -0.70699,0.0749 -2.83326,0.27537 -4.72503,0.44545 l -3.43958,0.30923 -1.63389,1.55486 c -1.64485,1.56529 -3.93469,2.86437 -5.05738,2.86916 -0.81103,0.003 -2.41954,-0.84397 -3.21058,-1.69146 -0.51365,-0.5503 -0.8877,-0.68721 -1.87758,-0.68721 -0.67988,0 -1.62755,0.19526 -2.10593,0.43391 l -0.8698,0.43391 0.14617,1.8812 c 0.23546,3.03042 0.20986,3.00738 2.83503,2.55141 z m 13.96986,-1.21791 c 2.47367,-0.42848 3.76515,-0.76192 7.79296,-2.01198 2.47327,-0.7676 3.41482,-1.27125 2.39602,-1.28169 -0.44383,-0.005 -6.16965,1.40009 -9.20988,2.25932 -0.72761,0.20564 -1.99485,0.45227 -2.81609,0.54806 -0.82125,0.0958 -1.64018,0.26502 -1.81984,0.37606 -0.54105,0.33439 0.002,0.84846 0.70914,0.67103 0.35512,-0.0891 1.68159,-0.34149 2.94769,-0.5608 z M 21.538602,276.68372 c 0.10914,-0.0642 0.19843,-0.42231 0.19843,-0.79571 0,-0.61928 -0.0726,-0.66439 -0.82682,-0.51355 -0.45475,0.091 -1.16913,0.16536 -1.5875,0.16536 -0.92956,0 -1.01179,0.58752 -0.16536,1.18154 0.53971,0.37877 1.70503,0.36035 2.38125,-0.0376 z m 5.706776,-0.67057 0.97395,-0.60562 -1.98126,-0.079 c -1.0897,-0.0435 -2.25056,-0.0114 -2.57969,0.0712 -0.64715,0.16243 -0.82964,1.05056 -0.2677,1.30283 0.66794,0.29985 2.90812,-0.10079 3.8547,-0.68938 z m 121.359362,-0.038 c 1.56318,-0.73003 3.04271,-1.91806 3.04271,-2.44324 0,-0.60572 -0.76419,-0.42839 -1.52664,0.35424 -1.30756,1.34217 -1.96569,1.65007 -3.5309,1.65191 -1.08696,0.001 -1.66622,-0.14028 -2.1584,-0.52743 -0.7581,-0.59631 -1.51735,-0.69601 -1.51126,-0.19843 0.007,0.57212 0.38001,0.95632 1.32741,1.36725 1.32398,0.57428 2.84238,0.50308 4.35708,-0.2043 z m -104.360732,0.0845 c 1.00094,-0.53569 0.49201,-0.78444 -1.60489,-0.78444 -3.12598,0 -2.636,0.67236 0.745,1.0223 0.19146,0.0198 0.57842,-0.0872 0.85989,-0.23786 z m 4.74511,-1.04903 c 0,-0.14552 -0.23813,-0.26458 -0.52917,-0.26458 -0.29104,0 -0.52917,0.11906 -0.52917,0.26458 0,0.14552 0.23813,0.26459 0.52917,0.26459 0.29104,0 0.52917,-0.11907 0.52917,-0.26459 z m 116.681252,-0.92993 c 0,-0.76522 -0.15231,-1.02279 -0.8599,-1.45422 -0.81447,-0.49659 -1.78593,-0.70163 -1.78593,-0.37693 0,0.24356 2.23137,2.76081 2.44739,2.76095 0.10914,8e-5 0.19844,-0.41833 0.19844,-0.9298 z M 21.421692,273.90881 c 0.0448,-0.38771 -0.1039,-1.60266 -0.33053,-2.69987 -0.50925,-2.46544 -0.23437,-4.08554 1.07447,-6.33281 0.491876,-0.84453 0.894516,-1.61844 0.894756,-1.71979 2.4e-4,-0.10134 0.47378,-0.8391 1.05232,-1.63947 1.72016,-2.37972 2.91599,-4.22639 2.91599,-4.50305 0,-0.1427 -0.5209,-0.25945 -1.15755,-0.25945 -0.63666,0 -1.50365,-0.0692 -1.92666,-0.15382 -0.68401,-0.1368 -0.96349,0.0462 -2.525596,1.65365 -3.02896,3.11687 -5.08255,6.0388 -5.49211,7.81439 -0.45237,1.96118 -0.32913,4.5165 0.29934,6.20651 0.88334,2.37538 1.06026,2.50702 3.24713,2.41619 1.80258,-0.0749 1.86972,-0.10183 1.94844,-0.78248 z m 127.101828,0.37421 c 0.60065,-0.69937 0.78508,-1.41604 0.46398,-1.80296 -0.17983,-0.21667 -0.21852,-0.80909 -0.10311,-1.57869 0.14244,-0.94984 0.49799,-1.60479 1.55301,-2.86078 2.07874,-2.47471 2.54691,-3.23518 3.08899,-5.01761 0.60846,-2.00073 0.65548,-5.26189 0.11974,-8.30603 -0.44769,-2.54387 -1.69345,-4.90359 -4.96248,-9.39999 l -2.06365,-2.83845 0.40136,-0.998 c 0.27853,-0.69259 1.05856,-1.52432 2.54887,-2.7178 2.3968,-1.91943 3.40014,-3.07841 3.40014,-3.92758 0,-0.72982 -0.19011,-0.71727 -1.37975,0.0911 -1.22467,0.83218 -1.44027,0.83441 -0.89964,0.009 0.47733,-0.72849 0.57532,-1.99368 0.15442,-1.99368 -0.15009,0 -0.34609,0.20836 -0.43556,0.46302 -0.27188,0.77386 -2.17217,3.20658 -2.74372,3.51246 -0.80749,0.43216 -1.48984,0.0853 -2.60317,-1.32313 -0.99617,-1.26026 -1.00896,-1.30647 -1.18415,-4.27829 -0.0974,-1.65235 -0.29581,-4.0163 -0.44089,-5.25323 -0.23851,-2.03336 -0.37099,-8.53139 -0.60537,-29.69227 -0.0431,-3.88872 -0.13116,-7.11971 -0.19576,-7.17998 -0.0646,-0.0603 -0.72911,-0.1919 -1.47669,-0.29251 l -1.35923,-0.18294 -0.0332,1.67437 c -0.0183,0.92091 -0.0507,2.03156 -0.072,2.46812 -0.0689,1.41057 0.59379,12.64325 0.85654,14.51901 0.33464,2.38891 0.53597,9.82784 0.56661,20.93516 0.0168,6.08596 0.13474,9.59492 0.36466,10.84792 0.34188,1.86323 0.17184,4.89144 -0.32399,5.76984 -0.12521,0.2218 -0.69051,0.7705 -1.25622,1.21932 -0.95892,0.76079 -1.17459,0.81605 -3.185,0.81605 -2.00669,0 -2.22003,-0.0544 -3.07247,-0.783 -0.50383,-0.43065 -1.12441,-0.78784 -1.37907,-0.79375 -0.61501,-0.0143 -1.52135,0.91716 -1.52135,1.56348 0,0.75302 1.4472,2.77482 2.24709,3.13927 0.98529,0.44893 1.42434,0.39509 2.90549,-0.35633 1.29757,-0.65829 1.32555,-0.66074 1.98438,-0.1741 0.95044,0.70205 1.71447,2.36477 1.31036,2.85169 -0.53822,0.64852 -2.92409,0.4806 -4.05261,-0.28524 -0.8249,-0.55979 -1.05063,-0.60949 -1.50196,-0.33073 -0.67156,0.41481 -0.94527,1.45163 -0.55021,2.08422 0.16681,0.2671 0.30329,0.64674 0.30329,0.84363 0,0.53768 1.18611,0.97211 2.65411,0.97211 1.05677,0 1.46461,0.14145 2.13509,0.74053 0.7186,0.64207 0.89052,1.06899 1.29295,3.21083 0.47134,2.50853 0.44917,3.05012 -0.17367,4.24352 -0.19193,0.36776 -0.3497,0.80291 -0.3506,0.96699 -0.004,0.66027 -0.74614,0.91705 -2.12351,0.73433 -1.93223,-0.25631 -2.57607,-0.90258 -3.07167,-3.08318 -0.36517,-1.60677 -0.47075,-1.78594 -1.0523,-1.78594 -0.81619,0 -1.25575,1.03308 -1.06948,2.51354 0.42708,3.39442 1.12033,5.03407 2.38722,5.64617 0.58798,0.28408 1.07759,0.29461 2.46487,0.053 1.527,-0.26592 1.7898,-0.24838 2.22855,0.14868 0.64343,0.5823 0.21579,1.16358 -0.85604,1.16358 -0.78261,0 -0.87759,0.20075 -0.59459,1.25677 0.20054,0.74831 0.704,0.7556 3.53424,0.0512 l 2.1862,-0.54412 0.62827,0.59024 c 0.37521,0.35248 0.62828,0.89283 0.62828,1.34145 0,1.42302 0.47811,1.80238 2.2716,1.80238 1.21034,0 1.7148,-0.11605 2.0128,-0.46303 z M 46.872448,273.94796 c 5.20248,-0.54131 5.96005,-1.01193 6.99995,-4.34857 0.37013,-1.18761 0.67297,-2.30139 0.67297,-2.47507 0,-0.37326 -0.43291,-0.421 -0.64888,-0.0715 -0.083,0.13432 -0.50775,0.32259 -0.94386,0.41838 -0.4361,0.0958 -0.92327,0.41773 -1.0826,0.71543 -0.25349,0.47366 -0.45982,0.52149 -1.65144,0.38283 -2.2435,-0.26104 -2.81697,-1.53371 -2.81697,-6.25148 0,-1.27358 0.10413,-1.60032 0.68331,-2.144 0.56001,-0.52569 0.94941,-0.63876 2.158,-0.62665 1.32639,0.0133 1.54566,0.0998 2.18023,0.8599 1.26241,1.51215 1.71197,0.97245 1.30338,-1.56472 -0.46969,-2.91649 0.13085,-2.70704 -7.21149,-2.51508 -7.9221,0.20711 -7.06004,0.15281 -9.56447,0.60238 -1.27322,0.22855 -3.39435,0.35353 -5.32305,0.31366 -2.65349,-0.0549 -3.32514,0.0115 -3.89516,0.38501 -0.7704,0.50478 -2.62868,2.9217 -3.49422,4.54465 -0.31197,0.58497 -1.02441,1.77697 -1.5832,2.64888 -0.903036,1.40907 -1.017876,1.77672 -1.033096,3.30729 -0.0189,1.90387 0.27133,5.23259 0.51063,5.8562 0.13424,0.34983 1.524116,0.39078 11.057686,0.32585 5.99729,-0.0408 12.15431,-0.20435 13.68228,-0.36334 z m -20.31996,-12.76415 c -0.2013,-0.24255 -0.0663,-0.61491 0.49677,-1.37005 0.42525,-0.57034 0.77319,-1.25984 0.77319,-1.53222 0,-0.43571 0.18287,-0.4857 1.52135,-0.41589 l 1.52136,0.0794 0.0736,1.05833 c 0.0545,0.78316 0.004,0.95514 -0.19438,0.66146 -0.1575,-0.23323 -0.26968,-0.26887 -0.27207,-0.0865 -0.002,0.17074 -0.31229,0.67676 -0.68902,1.12448 -0.56881,0.67599 -0.87743,0.81405 -1.81969,0.81405 -0.62409,0 -1.2591,-0.14988 -1.41113,-0.33306 z m 3.32048,-1.33876 c 0.32742,-0.48096 0.59531,-0.95639 0.59531,-1.05653 0,-0.10014 -0.47019,-0.18206 -1.04486,-0.18206 -0.87395,0 -1.15528,0.14474 -1.7198,0.88487 -0.3712,0.48668 -0.67492,0.96293 -0.67492,1.05833 0,0.0954 0.50602,0.17265 1.12448,0.17166 0.97508,-0.002 1.20357,-0.118 1.71979,-0.87627 z m 51.69604,14.05714 2.02052,-0.0292 0.31269,-1.08484 c 0.46004,-1.59605 2.16746,-6.02882 2.55802,-6.64109 0.50375,-0.78971 0.67669,-2.44937 0.44112,-4.23333 -0.17659,-1.33732 -0.29834,-1.60016 -0.77258,-1.66784 -0.46067,-0.0657 -0.59584,0.095 -0.744,0.88475 -0.3954,2.10766 -3.03195,6.36877 -4.3534,7.03585 -0.37903,0.19133 -0.95552,0.54555 -1.28109,0.78716 l -0.59196,0.43929 0.76426,0.31656 c 0.42034,0.17411 1.02471,0.59381 1.34304,0.93266 l 0.57878,0.61608 -1.28025,-0.65932 c -1.07368,-0.55294 -1.54273,-0.6397 -2.90702,-0.53769 -2.26805,0.16957 -3.53261,1.21646 -3.53261,2.92453 0,1.11817 0.4672,1.28866 3.04271,1.11041 1.30969,-0.0906 3.29049,-0.17795 4.40177,-0.194 z m 20.146912,-2.44683 c 1.67747,-0.59845 2.83236,-1.52305 2.82984,-2.26557 -0.004,-1.29506 -0.90049,-1.85505 -2.95331,-1.84561 -2.057022,0.009 -3.578512,0.43381 -5.206492,1.45211 -0.79347,0.49632 -1.54958,0.83633 -1.68024,0.75557 -0.48646,-0.30065 -0.0467,-0.96495 0.83019,-1.25399 0.4984,-0.16429 0.94376,-0.41777 0.9897,-0.56329 0.0459,-0.14552 -0.96743,-0.59336 -2.25194,-0.99519 -2.89571,-0.90588 -3.6882,-1.70801 -4.54512,-4.60043 -0.33634,-1.13528 -1.26437,-1.9074 -1.85433,-1.54279 -0.38605,0.2386 -0.16956,2.99515 0.30705,3.90946 1.03279,1.9813 3.56796,5.83657 4.0425,6.1475 0.30982,0.203 1.61933,0.48908 2.91004,0.63574 1.29071,0.14666 2.40976,0.32968 2.48679,0.4067 0.27622,0.27623 3.114382,0.10976 4.095322,-0.24021 z m -50.610142,-4.05151 c -1e-5,-0.10914 -0.42284,-0.53581 -0.93964,-0.94817 -0.8664,-0.6913 -0.93341,-0.84594 -0.85989,-1.98437 l 0.0797,-1.23465 0.95422,0.0729 c 1.26728,0.0968 1.66282,-0.39705 1.42858,-1.7835 l -0.18035,-1.06749 h -1.42264 c -1.13574,0 -1.47788,0.10321 -1.69654,0.51177 -0.36034,0.67331 -0.35135,3.92976 0.014,5.07114 0.15833,0.49466 0.33319,1.04821 0.38857,1.23011 0.10723,0.35224 2.23396,0.47818 2.23395,0.13229 z m 2.59023,-1.36483 c 1.47323,-0.75779 2.24925,-1.75391 3.48906,-4.47866 1.80922,-3.97615 2.07158,-6.38143 1.49103,-13.66953 -0.50391,-6.32601 -0.521,-8.20873 -0.10929,-12.03854 0.38345,-3.56687 2.29419,-11.83064 2.91913,-12.62496 0.13926,-0.17701 0.20073,-0.47466 0.13658,-0.66146 -0.13686,-0.39857 1.58454,-3.9033 2.56373,-5.21967 0.37282,-0.50121 0.67787,-1.02278 0.67787,-1.15903 0,-0.13625 0.40885,-0.81682 0.90857,-1.51239 0.49971,-0.69556 1.15085,-1.73958 1.44698,-2.32004 0.29613,-0.58045 0.9369,-1.30166 1.42394,-1.60266 0.48704,-0.30101 1.11122,-0.79667 1.38707,-1.10148 0.27584,-0.3048 1.10144,-0.85552 1.83467,-1.22382 0.73323,-0.3683 1.6001,-0.80737 1.92639,-0.97571 0.47013,-0.24255 0.59368,-0.53495 0.59531,-1.40891 0.004,-2.09845 -0.34086,-2.31452 -2.19129,-1.37321 -3.66313,1.86343 -7.1113,5.49675 -10.23109,10.78045 -2.10111,3.55843 -2.73901,5.04496 -3.00844,7.01069 -0.0961,0.70126 -0.36376,1.82849 -0.59477,2.50496 -1.28217,3.75471 -1.35297,5.2115 -1.20515,24.79763 0.0208,2.75676 -0.90557,7.68416 -1.83578,9.76451 -0.68109,1.5232 -3.09478,4.17161 -4.23071,4.64213 -1.0793,0.44706 -1.10924,1.68031 -0.0502,2.06712 1.08424,0.396 1.57338,0.35964 2.65637,-0.19742 z m 36.38381,-9.35079 c 0.0834,-1.78263 0.33599,-4.96755 0.5612,-7.07761 0.22521,-2.11005 0.52189,-6.12634 0.65929,-8.92509 0.1374,-2.79874 0.31434,-5.19304 0.39321,-5.32065 0.0789,-0.12761 0.20777,-2.77882 0.28646,-5.89158 0.18141,-7.17661 0.38103,-11.36663 0.55494,-11.64802 0.0749,-0.12113 0.0555,-0.65003 -0.0431,-1.17532 -0.1722,-0.91789 -0.21649,-0.95054 -1.13731,-0.83826 -0.52698,0.0643 -1.7566,0.28006 -2.7325,0.47956 l -1.77437,0.36273 -0.0777,4.50592 c -0.0427,2.47826 -10e-4,6.64905 0.0921,9.26842 0.0934,2.61938 0.12522,10.12031 0.0707,16.66875 -0.0545,6.54844 -0.0118,12.04131 0.0948,12.20637 0.22724,0.35183 0.92702,0.55243 2.07636,0.59523 l 0.82417,0.0307 z m -4.00133,-3.96875 c 0.0371,-4.5785 0.0134,-25.07239 -0.0402,-34.76469 l -0.008,-1.36105 -2.05052,-0.16096 c -1.12778,-0.0885 -2.73513,-0.23121 -3.57187,-0.31708 -0.83675,-0.0859 -1.52039,-0.0558 -1.51922,0.0668 0.008,0.80839 0.81968,6.18921 1.03175,6.83751 0.1428,0.43656 0.50737,2.46062 0.81017,4.49791 0.30278,2.0373 0.66147,4.06136 0.79707,4.49792 0.1356,0.43656 0.37643,2.01169 0.53518,3.50029 0.15875,1.48859 0.46967,3.51265 0.69093,4.49791 0.22126,0.98526 0.56847,3.34998 0.77158,5.25494 0.20311,1.90495 0.49263,3.78794 0.64337,4.18441 0.15073,0.39647 0.27406,1.25271 0.27406,1.90276 0,0.65004 0.18454,1.62356 0.41009,2.16337 0.22555,0.53981 0.48132,1.90521 0.56838,3.03421 0.29822,3.86715 0.60904,2.05249 0.65674,-3.83424 z m 52.331382,-1.32292 c -0.0289,-1.13435 -1.48439,-1.61127 -2.57855,-0.84489 -1.09353,0.76594 -0.74524,1.17562 0.99947,1.17562 1.0981,0 1.5849,-0.10196 1.57908,-0.33073 z m -25.52388,-33.40074 c 1.37009,-0.6797 2.62994,-1.56532 3.57188,-2.51086 2.19943,-2.20787 5.55625,-6.07503 5.55625,-6.40097 0,-0.15856 0.41672,-0.86834 0.92604,-1.57727 0.50932,-0.70894 0.92604,-1.36413 0.92604,-1.45597 0,-0.0919 0.41672,-0.98468 0.92604,-1.98409 0.50933,-0.9994 0.92605,-1.97162 0.92605,-2.1605 0,-0.18887 -0.39541,-0.48638 -0.87869,-0.66113 -1.09374,-0.39551 -1.23798,-0.39598 -1.23798,-0.004 0,0.17252 -0.22726,0.55947 -0.50501,0.85989 -0.27776,0.30042 -0.86986,1.269 -1.31578,2.1524 -0.44592,0.88339 -1.0521,1.82458 -1.34707,2.09153 -0.29497,0.26694 -0.53631,0.59104 -0.53631,0.72022 0,0.12918 -0.47625,0.87955 -1.05833,1.66749 -0.58208,0.78794 -1.05833,1.54723 -1.05833,1.68733 0,0.50459 -3.05947,2.96746 -4.75858,3.83065 -2.86591,1.45596 -4.32379,1.83908 -6.4733,1.70113 -1.04674,-0.0672 -2.25177,-0.30547 -2.67784,-0.52954 -0.42606,-0.22407 -1.12161,-0.57073 -1.54566,-0.77036 -1.36115,-0.64078 -4.752752,-3.76986 -5.825772,-5.37483 -0.57229,-0.856 -1.57467,-2.04304 -2.22753,-2.63787 -0.65285,-0.59483 -1.60307,-1.46963 -2.11159,-1.94401 -1.19724,-1.11682 -3.01045,-1.65437 -6.12974,-1.81721 -4.38179,-0.22875 -6.34021,0.55652 -3.65673,1.46625 0.68094,0.23084 1.32586,0.50901 1.43316,0.61815 0.10731,0.10914 0.71487,0.19843 1.35013,0.19843 0.63526,0 1.58164,0.17825 2.10306,0.39612 1.48729,0.62143 3.93495,2.72293 5.77019,4.95415 3.58116,4.35385 7.081802,6.7135 12.314782,8.30091 0.68635,0.2082 2.08711,0.33426 3.30729,0.29764 1.86622,-0.056 2.36712,-0.18779 4.23333,-1.11362 z m -22.565652,-2.76767 c 0.76944,-0.2837 1.96656,-0.65553 2.66026,-0.82629 0.69369,-0.17077 1.32799,-0.41845 1.40954,-0.55041 0.0816,-0.13196 -0.18835,-0.63285 -0.59981,-1.11309 -0.41145,-0.48024 -1.16481,-1.39693 -1.67413,-2.03708 -3.10804,-3.9064 -6.4041,-5.49925 -8.51604,-4.11545 -0.44509,0.29164 -0.92808,0.39085 -1.36674,0.28076 -0.4713,-0.11829 -0.91585,-0.001 -1.45622,0.38358 -0.55583,0.39579 -1.00291,0.50884 -1.56649,0.39613 -0.43376,-0.0868 -0.85528,-0.05 -0.9367,0.0818 -0.0814,0.13174 -1.01859,0.21733 -2.08261,0.19021 -1.70658,-0.0435 -2.11425,0.0467 -3.45922,0.76557 -1.9155,1.0238 -3.37015,2.21108 -3.37015,2.7507 0,0.50636 0.58933,0.99286 1.98438,1.63814 2.78783,1.28952 4.5195,1.72444 8.39733,2.10904 1.12603,0.11168 2.12814,0.28386 2.22691,0.38263 0.0988,0.0988 1.70308,0.17958 3.56514,0.17958 2.70154,0 3.66821,-0.10422 4.78455,-0.51581 z m 18.759232,-0.27594 c 1.7213,-0.31714 4.84873,-1.84678 6.27912,-3.07114 0.57387,-0.49121 1.49121,-1.57918 2.03853,-2.41772 0.54732,-0.83853 1.61854,-2.35804 2.38049,-3.37669 0.76195,-1.01864 1.47471,-2.14801 1.58391,-2.5097 0.1092,-0.36169 0.52409,-1.07607 0.92198,-1.5875 0.70401,-0.90489 1.31802,-2.34903 1.31802,-3.09992 0,-0.28809 -0.42989,-0.36262 -1.91823,-0.33258 l -1.91823,0.0387 -3.07897,-2.07534 c -5.66673,-3.81958 -7.2314,-4.92422 -8.5627,-6.04516 -1.54587,-1.30162 -2.78639,-1.96504 -5.98249,-3.19937 -2.593302,-1.00153 -2.881052,-1.05637 -2.881052,-0.54908 0,0.4932 1.489292,2.75303 2.645402,4.01411 1.6145,1.76108 3.32843,4.85616 3.70433,6.68941 0.46899,2.28727 0.21865,6.35792 -0.50989,8.29109 -0.88428,2.34644 -2.42571,4.29699 -3.97462,5.02954 -0.72969,0.3451 -1.328812,0.75088 -1.331382,0.90172 -0.006,0.35487 2.216072,2.01274 3.539582,2.64079 1.83319,0.8699 3.53905,1.06548 5.7462,0.65883 z m -7.96664,-4.89736 c 2.75651,-1.7401 4.14179,-5.78158 3.70288,-10.80285 -0.11662,-1.33416 -0.30041,-2.78294 -0.40842,-3.2195 -0.27785,-1.12299 -2.85543,-5.11675 -4.918682,-7.6211 -0.38351,-0.4655 -0.84233,-1.33049 -1.01961,-1.92219 -0.26811,-0.89488 -0.59586,-1.24699 -1.94855,-2.0934 -0.89442,-0.55966 -1.48702,-1.06434 -1.31688,-1.12151 0.17015,-0.0572 0.90173,0.32165 1.62575,0.8418 0.72402,0.52016 2.74656,1.52243 4.494552,2.22727 3.85847,1.55585 6.12204,2.79676 8.16549,4.47636 1.54284,1.26813 6.77168,4.81589 7.09786,4.81589 0.0949,0 0.73729,0.47625 1.42761,1.05834 1.76981,1.49233 2.41542,1.37939 2.76899,-0.48437 0.0919,-0.48468 0.58871,-1.37371 1.10391,-1.97561 0.51521,-0.6019 0.90322,-1.26542 0.86224,-1.47449 -0.041,-0.20906 -0.8484,-0.70419 -1.79428,-1.10027 -0.94589,-0.39608 -2.4937,-1.04419 -3.43959,-1.44023 -5.75436,-2.40937 -7.56618,-3.62001 -13.19443,-8.81638 -1.50886,-1.39308 -3.61171,-3.25516 -4.673012,-4.13795 -1.06129,-0.88279 -2.1869,-1.9325 -2.50134,-2.33268 -0.31444,-0.40018 -0.75992,-0.72761 -0.98996,-0.72761 -0.23004,0 -1.03566,0.58392 -1.79027,1.2976 -1.49673,1.41555 -3.94159,2.77399 -5.73836,3.18842 -1.62498,0.37481 -3.87048,-0.10096 -6.5033,-1.37787 -2.25018,-1.09134 -3.6116,-2.31693 -4.08628,-3.67858 -0.14427,-0.41387 -0.37293,-0.75248 -0.50813,-0.75248 -0.13519,0 -1.2844,0.87446 -2.5538,1.94325 -2.14498,1.80601 -4.11997,3.24449 -7.73195,5.6316 -0.80037,0.52894 -1.75287,1.22997 -2.11667,1.55784 -0.3638,0.32787 -1.89284,1.23487 -3.39786,2.01557 -3.60717,1.87114 -4.80422,2.88769 -4.80422,4.0798 0,0.69421 0.16594,1.00326 0.7276,1.35505 0.40018,0.25065 0.9241,0.64035 1.16427,0.86599 0.24016,0.22565 1.1629,0.99814 2.05052,1.71665 0.88762,0.71851 1.61386,1.41848 1.61386,1.55549 0,0.13701 0.62508,0.87139 1.38906,1.63196 0.76398,0.76057 1.73892,1.78342 2.16651,2.27301 1.68705,1.93161 6.28874,5.00712 7.49184,5.00712 1.0796,0 4.29842,-2.44558 4.29842,-3.26583 0,-0.57307 -2.72103,-2.95421 -5.41537,-4.73893 -2.23752,-1.48213 -3.37344,-2.08458 -5.34727,-2.83601 -0.46242,-0.17605 -1.04192,-0.54235 -1.28777,-0.81401 -0.42323,-0.46767 -0.40272,-0.54984 0.38582,-1.54544 0.84153,-1.06253 3.24328,-3.20395 3.59344,-3.20395 0.10439,0 0.6513,-0.36552 1.21536,-0.81226 1.06169,-0.84087 1.79794,-0.85886 1.29245,-0.0316 -0.15021,0.24582 -0.56993,0.92321 -0.9327,1.50529 -0.36277,0.58208 -0.79053,1.35599 -0.95057,1.71979 -0.16004,0.36381 -0.51455,1.09439 -0.78781,1.62353 -0.64005,1.23941 -0.62573,1.50624 0.0985,1.83397 1.77037,0.80114 4.73166,2.92086 7.2099,5.16092 1.30969,1.18382 2.76229,2.34834 3.22801,2.58782 0.97345,0.50058 2.22159,0.56854 2.64605,0.14408 0.5001,-0.5001 1.82665,0.006 2.81416,1.073 0.7847,0.84811 1.17377,1.04763 2.34403,1.20204 0.77174,0.10183 1.92623,0.41238 2.56554,0.69011 1.34419,0.58396 5.33446,4.10828 6.40894,5.66058 1.61669,2.33561 1.85726,2.5619 2.54116,2.39025 0.35592,-0.0893 1.103992,-0.45082 1.662382,-0.80332 z M 79.151618,196.82279 c 0,-0.0747 0.56554,-0.74011 1.25677,-1.47877 1.23875,-1.32376 3.99371,-2.9452 6.43071,-3.78481 1.54965,-0.5339 5.78152,-0.13439 6.88275,0.64976 0.42658,0.30375 0.7756,0.66323 0.7756,0.79884 0,0.34719 -0.11433,0.31737 -1.16901,-0.30491 -0.83321,-0.4916 -1.27342,-0.54187 -4.05493,-0.46302 -3.10107,0.0879 -3.13472,0.0958 -5.47087,1.27908 -1.78867,0.90599 -2.54287,1.45944 -3.15487,2.3151 -0.44235,0.61846 -0.95994,1.12448 -1.15021,1.12448 -0.19027,0 -0.34594,-0.0611 -0.34594,-0.13575 z m 6.09846,-10.83057 c -0.3346,-0.35616 -0.60836,-0.95881 -0.60836,-1.33922 0,-0.80372 1.25264,-2.46603 2.29102,-3.04029 0.67364,-0.37255 0.74909,-0.35859 1.23075,0.22774 0.89015,1.08358 0.63148,2.8252 -0.62439,4.20403 -0.70504,0.77407 -1.53043,0.75522 -2.28902,-0.0523 z m 2.22091,-0.73422 c 0.22653,-0.32342 0.41188,-1.10487 0.41188,-1.73655 0,-1.13097 -0.0128,-1.14725 -0.83913,-1.06561 -1.06185,0.10491 -1.92315,1.46398 -1.66696,2.63037 0.13639,0.62099 0.30534,0.75983 0.92461,0.75983 0.48307,0 0.90702,-0.21314 1.1696,-0.58804 z m -19.75127,21.92902 c 0.68499,-0.63173 1.98958,-1.64819 2.89909,-2.25881 0.97644,-0.65556 1.65364,-1.3 1.65364,-1.57362 0,-0.28259 -0.59364,-0.81738 -1.52135,-1.37054 -0.83675,-0.49893 -2.15735,-1.41705 -2.93467,-2.04028 -0.77733,-0.62323 -1.56981,-1.13315 -1.76107,-1.13315 -0.62399,0 -1.24358,2.39903 -1.38697,5.37019 -0.13099,2.71448 -0.1075,2.88895 0.47194,3.50573 0.33538,0.357 0.77272,0.64908 0.97187,0.64908 0.19915,0 0.92253,-0.51687 1.60752,-1.1486 z m 8.2119,-0.58803 c -0.41537,-0.70401 -0.48014,-1.01906 -0.25566,-1.24354 0.22449,-0.22449 0.30066,-0.16811 0.30066,0.22255 0,0.75832 0.74087,1.69929 1.33792,1.69929 0.66324,0 0.65683,-0.45802 -0.0142,-1.01592 -0.57895,-0.48134 -1.10869,-2.38446 -0.57127,-2.05231 0.16824,0.10397 0.30589,0.39939 0.30589,0.65647 0,0.50276 0.82636,1.36413 1.78051,1.85593 0.58447,0.30127 1.92366,0.14649 1.92366,-0.22232 0,-0.10539 -0.47625,-0.57434 -1.05834,-1.04212 -0.58208,-0.46778 -1.05833,-0.98241 -1.05833,-1.14362 0,-0.16167 0.21699,-0.0968 0.48385,0.14476 0.26612,0.24083 0.57172,0.43788 0.67911,0.43788 0.1074,0 0.59838,0.30747 1.09109,0.68328 0.60693,0.46293 1.07051,0.62783 1.43755,0.51133 0.91103,-0.28915 0.60789,-0.8017 -0.76644,-1.29591 -1.45693,-0.5239 -1.95355,-0.9738 -1.82253,-1.65109 0.0979,-0.5062 2.42498,-1.11139 4.38747,-1.14104 0.90016,-0.0136 1.12448,-0.112 1.12448,-0.49324 0,-1.05815 -1.19385,-1.40542 -2.84857,-0.82858 -0.62701,0.21858 -1.08799,0.18858 -2.0331,-0.13229 -1.75947,-0.59736 -2.45069,-0.5196 -3.62103,0.40733 -1.69964,1.34614 -2.09429,2.61892 -1.64836,5.31613 0.14464,0.87485 0.36721,1.10233 1.21245,1.23922 0.10424,0.0169 -0.0608,-0.39361 -0.3668,-0.91219 z m 50.845002,-6.30313 c 0,-0.42413 -1.41044,-0.70457 -1.91208,-0.38018 -0.26556,0.17174 -0.25286,0.27302 0.06,0.47839 0.60317,0.39596 1.85208,0.32973 1.85208,-0.0982 z m 1.98437,-1.48524 c 0.094,-0.15215 -0.1523,-0.26611 -0.57969,-0.26819 -0.40877,-0.002 -1.01111,-0.0754 -1.33854,-0.16315 -0.43765,-0.11729 -0.59531,-0.0463 -0.59531,0.26819 0,0.32972 0.26927,0.42774 1.17501,0.42774 0.64626,0 1.2486,-0.11907 1.33853,-0.26459 z m -3.57187,-0.44218 c 0,-0.24321 0.18828,-0.65024 0.4184,-0.90452 0.38366,-0.42394 0.37218,-0.50855 -0.13836,-1.01908 -0.44435,-0.44436 -0.50023,-0.66237 -0.27679,-1.07986 0.15397,-0.28771 0.39482,-0.52311 0.53522,-0.52311 0.1404,0 0.25528,-0.21099 0.25528,-0.46888 0,-0.25788 0.34033,-0.88296 0.75628,-1.38906 1.56558,-1.90486 2.43317,-4.37647 1.46753,-4.18073 -0.23211,0.047 -0.7097,0.79368 -1.06131,1.65916 -0.855,2.10459 -1.53124,2.79201 -2.74662,2.79201 -1.21283,0 -2.14147,0.93293 -2.74644,2.75912 -0.23757,0.71714 -0.43194,1.40724 -0.43194,1.53354 0,0.1263 0.55462,0.20093 1.23249,0.16585 1.00027,-0.0518 1.31183,0.0438 1.65364,0.5071 0.50447,0.68382 1.08262,0.76311 1.08262,0.14846 z m 4.43177,-1.0475 c 0.35016,-0.0938 0.59531,-0.36474 0.59531,-0.65784 0,-0.37602 -0.19259,-0.49831 -0.78477,-0.49831 -0.84599,0 -2.65481,0.75447 -2.65481,1.10734 0,0.24978 1.96832,0.28356 2.84427,0.0488 z m -0.69562,-2.01605 c 1.54352,-0.50814 1.80916,-0.68571 1.8142,-1.21267 0.003,-0.33955 -0.0926,-0.57767 -0.21305,-0.52917 -0.12043,0.0485 -1.13246,0.44313 -2.24896,0.87695 -1.1165,0.43381 -2.03001,0.93982 -2.03001,1.12447 0,0.47872 0.61682,0.41893 2.67782,-0.25958 z m 0.5705,-2.0514 c 0.37061,-0.29152 1.17797,-1.51191 1.79413,-2.71197 0.61616,-1.20007 1.56266,-2.83678 2.10333,-3.63715 0.54068,-0.80036 1.2854,-2.05052 1.65495,-2.77812 0.36954,-0.72761 0.97691,-1.6074 1.3497,-1.95511 0.65561,-0.61148 0.70052,-0.6173 1.37128,-0.17781 0.82143,0.53822 1.69348,2.32619 1.70165,3.48891 0.003,0.45475 0.0768,1.18194 0.16364,1.61597 0.154,0.77001 0.19861,0.79028 1.83819,0.83538 2.21627,0.061 2.35627,-0.18752 2.16932,-3.85051 -0.12104,-2.37147 -0.23927,-2.90368 -0.91492,-4.11825 -0.57022,-1.02506 -1.08371,-1.55265 -1.93694,-1.99014 -2.33635,-1.19796 -4.31272,-0.63733 -5.99335,1.70013 -0.98352,1.36789 -4.16298,7.42826 -5.59738,10.66914 -0.28983,0.65484 -0.83445,1.64239 -1.21027,2.19456 -0.37583,0.55216 -0.68331,1.05818 -0.68331,1.12448 0,0.34853 1.60871,0.0477 2.18998,-0.40951 z m -60.410292,-4.03401 c 1.69725,-2.64979 1.36148,-3.05383 -0.90892,-1.09371 -1.87022,1.61462 -2.19581,2.74735 -0.7897,2.74735 0.49499,0 0.87867,-0.37352 1.69862,-1.65364 z m 22.63385,-12.49312 c 2.69284,-1.48602 3.79823,-2.89209 5.43386,-6.91196 1.70143,-4.18159 1.89546,-6.97229 0.74267,-10.68163 -1.06228,-3.41806 -3.71509,-6.89367 -6.13997,-8.04435 -1.16497,-0.55282 -3.67395,-0.55783 -5.28015,-0.0105 -1.72222,0.58682 -4.14409,3.26463 -5.48161,6.06087 -0.55685,1.16416 -1.09899,2.47385 -1.20475,2.91041 -0.10577,0.43657 -0.34069,1.03188 -0.52205,1.32292 -0.18136,0.29104 -0.53259,2.20193 -0.78051,4.24641 -0.74403,6.13567 0.0221,9.04288 2.77833,10.54302 2.61892,1.42539 3.91287,1.7661 6.35313,1.67284 2.03273,-0.0777 2.42704,-0.18421 4.10105,-1.10799 z m -3.06458,-2.62856 c -0.0848,-0.0867 -1.03729,-0.20424 -2.11667,-0.26118 -3.5999,-0.18991 -6.58572,-1.51295 -6.15222,-2.7261 0.4928,-1.37907 1.15248,-1.49016 1.07295,-0.18068 -0.0545,0.89741 0.01,0.9829 1.0001,1.33524 1.26349,0.44941 7.43647,1.21426 8.10013,1.00362 0.25637,-0.0814 0.50324,-0.44361 0.54862,-0.80498 0.11444,-0.91142 0.5234,-0.86978 1.09775,0.11176 l 0.48608,0.83071 -0.75067,0.29953 c -0.89297,0.35632 -3.06735,0.61576 -3.28607,0.39208 z m -3.80609,-3.01479 c -1.64816,-0.36289 -3.12867,-2.6838 -2.8012,-4.3913 0.15256,-0.79547 1.0163,-1.57253 2.0964,-1.88601 0.88079,-0.25562 0.62137,0.38699 -0.38028,0.942 -0.939,0.52029 -1.06037,1.01361 -0.6287,2.55538 0.4486,1.60223 1.17838,2.0473 3.04166,1.85499 1.71271,-0.17676 3.22912,-1.0277 3.45824,-1.94061 0.0962,-0.38335 -0.0768,-1.36313 -0.42044,-2.38036 -0.55103,-1.63131 -0.56119,-2.35517 -0.0253,-1.80155 0.34257,0.3539 1.33964,3.30021 1.33964,3.95859 0,0.56943 -0.84618,1.48209 -2.24896,2.42569 -0.80925,0.54434 -2.49285,0.86976 -3.43108,0.66318 z m 7.17935,-5.25711 c -0.27781,-0.2778 -0.20592,-1.09704 0.11358,-1.29451 0.15949,-0.0986 0.47668,0.007 0.70488,0.23569 0.34179,0.34179 0.35492,0.48717 0.0745,0.82506 -0.36886,0.44445 -0.61725,0.50947 -0.89296,0.23376 z m -10.49885,-1.54787 c -0.29062,-0.35017 -0.27572,-0.49095 0.0907,-0.85737 0.51521,-0.5152 1.07698,-0.1447 0.93002,0.61337 -0.12372,0.63817 -0.59924,0.75184 -1.02071,0.244 z m -1.70478,-2.22621 c -0.18781,-0.30387 -0.0746,-0.36931 1.5762,-0.91141 0.7276,-0.23893 1.84568,-0.8501 2.48463,-1.35815 1.55185,-1.23393 1.96872,-1.17454 0.72143,0.1028 -1.56221,1.59985 -4.35156,2.86366 -4.78226,2.16676 z m 15.4084,-2.98411 c -0.64439,-0.8349 -0.74654,-0.8706 -2.48958,-0.86998 -1.40836,5.1e-4 -2.04443,0.13455 -2.82493,0.59532 -1.12679,0.66519 -1.24165,0.69781 -1.24165,0.35269 0,-0.50599 2.51662,-1.63238 3.99154,-1.78654 1.48639,-0.15536 1.52882,-0.14071 2.66207,0.91911 0.83428,0.78023 1.07209,1.15731 0.86305,1.36851 -0.20946,0.21162 -0.4727,0.0529 -0.9605,-0.57911 z m 32.360862,110.94668 c -0.60297,-0.50004 -0.84844,-0.89026 -0.73916,-1.17504 0.09,-0.2345 0.0478,-0.49794 -0.0937,-0.58541 -0.49931,-0.30859 0.0395,-0.65761 0.57381,-0.37167 0.36094,0.19317 0.47476,0.44229 0.36299,0.79447 -0.11011,0.34692 -0.0384,0.51305 0.22143,0.51305 0.43409,0 1.29878,1.17483 1.04873,1.42488 -0.26063,0.26063 -0.4198,0.1911 -1.37407,-0.60028 z m 2.00006,-0.71711 c -0.82544,-0.5609 -0.98121,-0.80062 -0.85278,-1.31233 0.11517,-0.45886 0.0152,-0.70205 -0.37442,-0.91055 -0.66952,-0.35832 -0.68214,-1.10589 -0.0286,-1.6973 0.60652,-0.54889 1.05031,-0.0909 0.52511,0.54194 -0.28577,0.34433 -0.24194,0.48455 0.27284,0.87285 0.45231,0.34119 0.56575,0.61244 0.43215,1.03338 -0.12274,0.38672 -0.0688,0.57224 0.1674,0.57534 0.44479,0.006 1.57958,1.18976 1.35532,1.41402 -0.26649,0.26649 -0.42307,0.21238 -1.49697,-0.51735 z M 18.562032,256.92665 c 0,-1.00466 0.11572,-1.27483 0.72761,-1.69879 0.40018,-0.27727 0.93596,-0.57929 1.19062,-0.67117 0.25466,-0.0919 0.46302,-0.41264 0.46302,-0.71281 0,-0.68025 0.70408,-0.97705 1.35438,-0.57093 0.708466,0.44245 1.026866,0.3782 1.026866,-0.20721 0,-0.76602 0.45327,-0.90567 1.43206,-0.44121 1.02688,0.48729 1.98605,1.46871 1.08149,1.10658 -1.14397,-0.45798 -1.42636,-0.44526 -1.95992,0.0883 -0.59482,0.59481 -1.21573,0.71611 -1.479666,0.28904 -0.28721,-0.46472 -0.92604,-0.28364 -0.92604,0.2625 0,0.34985 -0.33363,0.68377 -0.99219,0.99304 -0.84745,0.39799 -1.01148,0.6172 -1.12448,1.50276 -0.1934,1.51574 -0.79375,1.56104 -0.79375,0.0599 z m -2.35343,-2.88297 c -0.23756,-0.64219 0.31664,-1.7873 0.86501,-1.7873 0.16654,0 0.45151,-0.23813 0.63327,-0.52917 0.18176,-0.29104 0.51874,-0.52917 0.74884,-0.52917 0.2301,0 0.61605,-0.22828 0.85765,-0.50729 0.52937,-0.61132 2.15908,-0.48201 2.15908,0.17131 0,0.38971 -0.33061,0.37736 -1.36801,-0.0511 -0.32881,-0.1358 -0.46429,-0.0249 -0.52917,0.433 -0.048,0.33855 -0.26579,0.63157 -0.48407,0.65117 -0.21828,0.0196 -0.5457,0.0494 -0.7276,0.0661 -0.1819,0.0168 -0.33073,0.20912 -0.33073,0.4274 0,0.25145 -0.25316,0.39687 -0.69091,0.39687 -0.6463,0 -0.67969,0.0598 -0.51717,0.92604 0.1972,1.05122 -0.25918,1.29719 -0.61619,0.3321 z M 155.06737,236.57981 c -0.2529,-0.85084 -0.16781,-1.27942 0.30418,-1.53202 0.43209,-0.23125 0.47964,-0.36764 0.23214,-0.66587 -0.1712,-0.20628 -0.24772,-0.54066 -0.17005,-0.74306 0.0777,-0.2024 0.0115,-0.49767 -0.14694,-0.65615 -0.42498,-0.42498 0.50043,-0.7126 0.98877,-0.30732 0.29682,0.24634 0.32135,0.44641 0.10441,0.85176 -0.19155,0.35792 -0.19653,0.61679 -0.0154,0.79796 0.29392,0.29391 -0.61404,2.32085 -1.03961,2.32085 -0.13083,0 -0.24672,-0.0298 -0.25753,-0.0661 z m 2.37887,-0.22357 c -0.16151,-0.78492 -0.0891,-1.36032 0.20152,-1.60152 0.25589,-0.21237 0.27716,-0.39089 0.0755,-0.63385 -0.43431,-0.52331 0.24207,-0.7954 0.73986,-0.29762 0.33612,0.33612 0.35209,0.49058 0.0841,0.81347 -0.18193,0.21921 -0.26381,0.50693 -0.18195,0.63937 0.0819,0.13245 -0.0865,0.45377 -0.3741,0.71406 -0.28761,0.26028 -0.53285,0.42502 -0.54497,0.36609 z"
         style="fill:#000000;stroke-width:0.26458335" />
    </g>
  </g>
</svg>
