<svg width="368" height="368" viewBox="0 0 368 368" fill="none" xmlns="http://www.w3.org/2000/svg">
<rect x="77.934" y="0.28833" width="300" height="300" rx="20" transform="rotate(15 77.934 0.28833)" fill="#FFDD00"/>
<g opacity="0.9">
<path d="M69.2885 187V173.68H72.0605V184.588H78.5765V187H69.2885Z" fill="#191919"/>
<path d="M80.8549 187V173.68H90.0349V176.092H83.6269V179.08H89.2069V181.402H83.6269V184.588H90.1249V187H80.8549Z" fill="#191919"/>
<path d="M95.9677 187V176.092H91.8817V173.68H102.826V176.092H98.7397V187H95.9677Z" fill="#191919"/>
<path d="M104.6 177.73L104.78 173.68H107.048L106.13 177.73H104.6Z" fill="#191919"/>
<path d="M113.702 187.18C112.838 187.18 112.1 187.078 111.488 186.874C110.888 186.658 110.384 186.388 109.976 186.064C109.58 185.728 109.262 185.38 109.022 185.02C108.782 184.648 108.602 184.3 108.482 183.976C108.374 183.64 108.302 183.37 108.266 183.166C108.242 182.95 108.23 182.842 108.23 182.842H111.038C111.038 182.842 111.062 182.944 111.11 183.148C111.17 183.352 111.29 183.592 111.47 183.868C111.65 184.132 111.926 184.366 112.298 184.57C112.67 184.762 113.174 184.858 113.81 184.858C114.59 184.858 115.166 184.696 115.538 184.372C115.91 184.036 116.096 183.64 116.096 183.184C116.096 182.776 115.952 182.452 115.664 182.212C115.388 181.972 114.956 181.792 114.368 181.672L112.586 181.33C111.866 181.198 111.194 180.988 110.57 180.7C109.958 180.412 109.46 180.016 109.076 179.512C108.692 178.996 108.5 178.336 108.5 177.532C108.5 176.716 108.704 176.008 109.112 175.408C109.52 174.796 110.09 174.328 110.822 174.004C111.566 173.668 112.436 173.5 113.432 173.5C114.368 173.5 115.142 173.638 115.754 173.914C116.378 174.178 116.87 174.508 117.23 174.904C117.602 175.288 117.872 175.678 118.04 176.074C118.22 176.47 118.334 176.8 118.382 177.064C118.442 177.328 118.472 177.46 118.472 177.46H115.736C115.736 177.46 115.712 177.376 115.664 177.208C115.628 177.04 115.532 176.848 115.376 176.632C115.22 176.416 114.98 176.224 114.656 176.056C114.344 175.888 113.912 175.804 113.36 175.804C112.604 175.804 112.058 175.972 111.722 176.308C111.386 176.632 111.218 176.986 111.218 177.37C111.218 177.766 111.386 178.072 111.722 178.288C112.058 178.504 112.496 178.666 113.036 178.774L114.926 179.152C115.646 179.284 116.306 179.506 116.906 179.818C117.506 180.13 117.98 180.55 118.328 181.078C118.688 181.594 118.868 182.236 118.868 183.004C118.868 183.796 118.67 184.51 118.274 185.146C117.878 185.77 117.296 186.268 116.528 186.64C115.76 187 114.818 187.18 113.702 187.18Z" fill="#191919"/>
<path d="M124.87 187V173.68H128.614L131.656 180.538L134.788 173.68H138.406V187H135.67V177.928L132.934 183.886H130.36L127.606 177.892V187H124.87Z" fill="#191919"/>
<path d="M140.165 187L144.701 173.68H148.391L152.927 187H150.011L149.165 184.39H143.945L143.081 187H140.165ZM144.719 181.978H148.391L146.555 176.416L144.719 181.978Z" fill="#191919"/>
<path d="M154.683 187V173.68H157.455V179.314L162.225 173.68H165.645L160.083 180.07L165.843 187H162.297L157.455 181.078V187H154.683Z" fill="#191919"/>
<path d="M167.568 187V173.68H176.748V176.092H170.34V179.08H175.92V181.402H170.34V184.588H176.838V187H167.568Z" fill="#191919"/>
<path d="M182.581 187L187.117 173.68H190.807L195.343 187H192.427L191.581 184.39H186.361L185.497 187H182.581ZM187.135 181.978H190.807L188.971 176.416L187.135 181.978Z" fill="#191919"/>
<path d="M201.247 187V173.68H206.287C207.367 173.68 208.315 173.872 209.131 174.256C209.959 174.628 210.643 175.132 211.183 175.768C211.723 176.404 212.131 177.118 212.407 177.91C212.683 178.702 212.821 179.512 212.821 180.34C212.821 181.168 212.683 181.978 212.407 182.77C212.131 183.562 211.723 184.276 211.183 184.912C210.643 185.548 209.959 186.058 209.131 186.442C208.315 186.814 207.367 187 206.287 187H201.247ZM206.161 176.11H204.019V184.534H206.161C207.037 184.534 207.757 184.33 208.321 183.922C208.897 183.514 209.323 182.986 209.599 182.338C209.887 181.69 210.031 181.018 210.031 180.322C210.031 179.626 209.887 178.96 209.599 178.324C209.323 177.676 208.897 177.148 208.321 176.74C207.757 176.32 207.037 176.11 206.161 176.11Z" fill="#191919"/>
<path d="M214.765 187V173.68H217.537V187H214.765Z" fill="#191919"/>
<path d="M219.986 187V173.68H229.292V176.092H222.758V179.584H228.464V181.906H222.758V187H219.986Z" fill="#191919"/>
<path d="M231.57 187V173.68H240.876V176.092H234.342V179.584H240.048V181.906H234.342V187H231.57Z" fill="#191919"/>
<path d="M243.154 187V173.68H252.334V176.092H245.926V179.08H251.506V181.402H245.926V184.588H252.424V187H243.154Z" fill="#191919"/>
<path d="M254.703 187V173.68H260.103C261.087 173.68 261.927 173.854 262.623 174.202C263.331 174.55 263.871 175.03 264.243 175.642C264.627 176.254 264.819 176.962 264.819 177.766C264.819 178.642 264.597 179.41 264.153 180.07C263.709 180.718 263.079 181.192 262.263 181.492L265.161 187H262.083L259.437 181.87H257.475V187H254.703ZM260.067 176.074H257.475V179.602H260.067C260.679 179.602 261.159 179.434 261.507 179.098C261.855 178.762 262.029 178.348 262.029 177.856C262.029 177.352 261.855 176.932 261.507 176.596C261.159 176.248 260.679 176.074 260.067 176.074Z" fill="#191919"/>
<path d="M267.517 187V173.68H276.697V176.092H270.289V179.08H275.869V181.402H270.289V184.588H276.787V187H267.517Z" fill="#191919"/>
<path d="M279.066 187V173.68H281.604L287.346 182.176V173.68H290.1V187H287.526L281.82 178.738V187H279.066Z" fill="#191919"/>
<path d="M296.112 187V176.092H292.026V173.68H302.97V176.092H298.884V187H296.112Z" fill="#191919"/>
<path d="M303.243 189.61L304.719 187.162C304.311 187.126 303.969 186.964 303.693 186.676C303.429 186.388 303.297 186.04 303.297 185.632C303.297 185.188 303.447 184.822 303.747 184.534C304.047 184.246 304.419 184.102 304.863 184.102C305.307 184.102 305.685 184.246 305.997 184.534C306.309 184.822 306.465 185.212 306.465 185.704C306.465 185.98 306.399 186.28 306.267 186.604C306.135 186.916 305.919 187.294 305.619 187.738C305.331 188.194 304.953 188.752 304.485 189.412L304.359 189.61H303.243Z" fill="#191919"/>
</g>
<g opacity="0.9">
<path d="M138.735 210V199.092H134.649V196.68H145.593V199.092H141.507V210H138.735Z" fill="#191919"/>
<path d="M152.913 210.18C151.809 210.18 150.837 209.988 149.997 209.604C149.157 209.208 148.449 208.686 147.873 208.038C147.309 207.378 146.883 206.64 146.595 205.824C146.319 205.008 146.181 204.174 146.181 203.322C146.181 202.47 146.319 201.642 146.595 200.838C146.883 200.022 147.309 199.29 147.873 198.642C148.449 197.994 149.157 197.478 149.997 197.094C150.837 196.698 151.809 196.5 152.913 196.5C154.029 196.5 155.007 196.698 155.847 197.094C156.687 197.478 157.389 197.994 157.953 198.642C158.517 199.29 158.937 200.022 159.213 200.838C159.501 201.642 159.645 202.47 159.645 203.322C159.645 204.174 159.501 205.008 159.213 205.824C158.937 206.64 158.517 207.378 157.953 208.038C157.389 208.686 156.687 209.208 155.847 209.604C155.007 209.988 154.029 210.18 152.913 210.18ZM152.913 207.678C153.753 207.678 154.461 207.468 155.037 207.048C155.613 206.628 156.045 206.088 156.333 205.428C156.621 204.756 156.765 204.054 156.765 203.322C156.765 202.59 156.621 201.894 156.333 201.234C156.045 200.574 155.613 200.034 155.037 199.614C154.461 199.194 153.753 198.984 152.913 198.984C152.073 198.984 151.365 199.194 150.789 199.614C150.225 200.034 149.799 200.574 149.511 201.234C149.223 201.894 149.079 202.59 149.079 203.322C149.079 204.054 149.223 204.756 149.511 205.428C149.799 206.088 150.225 206.628 150.789 207.048C151.365 207.468 152.073 207.678 152.913 207.678Z" fill="#191919"/>
<path d="M167.783 210.18C166.667 210.18 165.689 209.988 164.849 209.604C164.009 209.22 163.307 208.704 162.743 208.056C162.191 207.396 161.777 206.664 161.501 205.86C161.225 205.044 161.087 204.21 161.087 203.358C161.087 202.506 161.225 201.672 161.501 200.856C161.789 200.04 162.209 199.308 162.761 198.66C163.325 198 164.033 197.478 164.885 197.094C165.737 196.698 166.733 196.5 167.873 196.5C168.761 196.5 169.523 196.614 170.159 196.842C170.807 197.058 171.347 197.346 171.779 197.706C172.211 198.054 172.553 198.426 172.805 198.822C173.069 199.218 173.267 199.596 173.399 199.956C173.543 200.304 173.633 200.592 173.669 200.82C173.717 201.036 173.741 201.144 173.741 201.144H170.987C170.987 201.144 170.951 201.036 170.879 200.82C170.807 200.604 170.663 200.352 170.447 200.064C170.231 199.764 169.913 199.506 169.493 199.29C169.085 199.062 168.545 198.948 167.873 198.948C166.997 198.948 166.265 199.164 165.677 199.596C165.101 200.016 164.663 200.562 164.363 201.234C164.075 201.894 163.931 202.584 163.931 203.304C163.931 204.048 164.081 204.762 164.381 205.446C164.681 206.118 165.119 206.67 165.695 207.102C166.283 207.522 167.015 207.732 167.891 207.732C168.851 207.732 169.607 207.486 170.159 206.994C170.723 206.502 171.059 205.836 171.167 204.996H167.711V202.818H173.903V203.844C173.903 205.236 173.633 206.406 173.093 207.354C172.565 208.29 171.839 208.998 170.915 209.478C170.003 209.946 168.959 210.18 167.783 210.18Z" fill="#191919"/>
<path d="M175.812 210V196.68H184.992V199.092H178.584V202.08H184.164V204.402H178.584V207.588H185.082V210H175.812Z" fill="#191919"/>
<path d="M190.925 210V199.092H186.839V196.68H197.783V199.092H193.697V210H190.925Z" fill="#191919"/>
<path d="M199.701 210V196.68H202.473V201.99H207.657V196.68H210.429V210H207.657V204.402H202.473V210H199.701Z" fill="#191919"/>
<path d="M212.884 210V196.68H222.064V199.092H215.656V202.08H221.236V204.402H215.656V207.588H222.154V210H212.884Z" fill="#191919"/>
<path d="M224.433 210V196.68H229.833C230.817 196.68 231.657 196.854 232.353 197.202C233.061 197.55 233.601 198.03 233.973 198.642C234.357 199.254 234.549 199.962 234.549 200.766C234.549 201.642 234.327 202.41 233.883 203.07C233.439 203.718 232.809 204.192 231.993 204.492L234.891 210H231.813L229.167 204.87H227.205V210H224.433ZM229.797 199.074H227.205V202.602H229.797C230.409 202.602 230.889 202.434 231.237 202.098C231.585 201.762 231.759 201.348 231.759 200.856C231.759 200.352 231.585 199.932 231.237 199.596C230.889 199.248 230.409 199.074 229.797 199.074Z" fill="#191919"/>
<path d="M239.047 210.18C238.591 210.18 238.219 210.03 237.931 209.73C237.643 209.418 237.499 209.058 237.499 208.65C237.499 208.218 237.643 207.852 237.931 207.552C238.219 207.252 238.591 207.102 239.047 207.102C239.479 207.102 239.839 207.252 240.127 207.552C240.427 207.852 240.577 208.218 240.577 208.65C240.577 209.07 240.427 209.43 240.127 209.73C239.839 210.03 239.479 210.18 239.047 210.18Z" fill="#191919"/>
</g>
<path fill-rule="evenodd" clip-rule="evenodd" d="M336.481 95.3764L300.494 85.7336L301.011 83.8018L340.297 94.3284L329.265 135.502L327.333 134.984L337.482 97.1078L272.872 134.411L271.872 132.678L336.481 95.3764Z" fill="#191919"/>
</svg>
