<svg width="412" height="256" viewBox="0 0 412 256" fill="none" xmlns="http://www.w3.org/2000/svg">
<path d="M201.018 51.6904H152.399V100.718H201.018V51.6904Z" fill="#FFDD00"/>
<path d="M225.077 0H28.0496H0V28.2853V226.968V255.253H28.0496H132.017V226.968H28.0496V28.2853H225.077V124.959L253.126 153.672V28.2853V0H225.077Z" fill="#FFDD00"/>
<path d="M65.001 170.166H80.218C90.4805 170.166 95.3115 175.287 95.3115 184.478C95.3115 193.669 90.3039 199.03 79.5557 199.03H73.4529V214.259H65.001V170.166ZM73.4529 176.81V192.315H78.752C84.369 192.315 86.7005 189.207 86.7005 184.46C86.7005 179.713 84.4043 176.792 79.5115 176.792L73.4529 176.81Z" fill="white"/>
<path d="M123.935 195.138H106.669V214.259H98.1465V170.166H106.669V188.076H123.935V170.166H132.449V214.259H123.935V195.138Z" fill="white"/>
<path d="M136.697 192.208C136.697 179.606 141.113 169.195 155.844 169.195C171.062 169.195 174.983 179.606 174.983 192.208C174.983 204.81 170.567 215.23 155.844 215.23C140.663 215.23 136.697 204.783 136.697 192.208ZM166.169 192.208C166.169 182.287 163.148 176.445 155.844 176.445C148.541 176.445 145.511 182.287 145.511 192.208C145.511 202.129 148.532 207.981 155.844 207.981C163.157 207.981 166.204 202.112 166.204 192.208H166.169ZM152.038 158.847H159.66L166.054 167.245H160.022L155.853 162.863L151.711 167.245H145.67L152.038 158.847ZM168.562 154.02H177.8L170.064 162.418H164.076L168.562 154.02Z" fill="white"/>
<path d="M190.234 170.166H205.028C214.742 170.166 219.397 174.37 219.397 181.797C219.397 186.428 217.586 189.412 214.451 191.237C216.616 192.111 218.458 193.641 219.724 195.616C220.989 197.591 221.616 199.914 221.516 202.263C221.516 209.388 217.1 214.259 206.414 214.259H190.234V170.166ZM198.81 177.05V188.628H204.003C208.896 188.628 210.644 186.375 210.644 182.536C210.644 179.25 208.772 177.059 204.462 177.059L198.81 177.05ZM198.81 195.076V207.455H206.237C210.883 207.455 212.755 205.14 212.755 201.551C212.755 197.774 210.759 195.094 205.513 195.094L198.81 195.076Z" fill="white"/>
<path d="M225.554 170.166H253.153V177.228H234.076V188.129H250.495V195.191H234.076V207.188H253.4V214.259H225.554V170.166ZM235.701 157.626H243.253L249.656 167.244H243.615L239.446 162.248L235.339 167.244H229.298L235.701 157.626Z" fill="white"/>
<path d="M311.938 188.859H315.682V170.156H331.146C346.364 170.156 351.186 179.597 351.186 192.198C351.186 204.8 345.887 214.25 331.146 214.25H315.682V196.17H311.938V188.859ZM324.196 177.228V188.859H332.595V196.17H324.196V207.187H330.837C338.15 207.187 342.372 202.44 342.372 192.207C342.372 181.974 338.15 177.228 330.837 177.228H324.196Z" fill="white"/>
<path d="M353.419 192.208C353.419 179.606 357.835 169.195 372.566 169.195C387.783 169.195 391.704 179.606 391.704 192.208C391.704 204.81 387.289 215.23 372.566 215.23C357.349 215.23 353.419 204.783 353.419 192.208ZM382.89 192.208C382.89 182.287 379.87 176.445 372.566 176.445C365.262 176.445 362.233 182.287 362.233 192.208C362.233 202.129 365.253 207.981 372.566 207.981C379.879 207.981 382.89 202.112 382.89 192.208ZM368.76 158.847H376.311L382.705 167.245H376.673L372.504 162.863L368.398 167.245H362.357L368.76 158.847ZM389.47 162.409H383.491L375.763 154.02H385.001L389.47 162.409Z" fill="white"/>
<path d="M393.453 170.166H412V176.988H406.948V207.455H411.956V214.277H393.409V207.455H398.426V176.988H393.409L393.453 170.166Z" fill="white"/>
<path d="M333.027 188.868H312.379V196.18H333.027V188.868Z" fill="white"/>
<path d="M293.019 170.166H284.867V188.984L266.206 170.166H257.568V214.259H265.72V188.806C265.72 187.337 265.482 184.718 265.181 182.1L284.841 201.925V214.259H293.019V170.166Z" fill="white"/>
<path d="M156.296 227.173H162.019L171.901 254.826H166.178L164.218 248.868H153.796L151.862 254.826H146.413L156.296 227.173ZM155.245 244.513H162.778L160.323 236.952C159.778 235.316 159.347 233.643 159.034 231.946C158.72 233.643 158.29 235.316 157.744 236.952L155.245 244.513Z" fill="white"/>
<path d="M174.373 235.232H179.257L179.442 237.673C179.95 236.77 180.682 236.017 181.566 235.488C182.451 234.958 183.457 234.671 184.485 234.654C185.024 234.648 185.56 234.726 186.075 234.885V239.89C185.258 239.687 184.417 239.597 183.576 239.623C182.836 239.603 182.101 239.732 181.411 240.001C180.721 240.27 180.091 240.674 179.557 241.191V254.826H174.373V235.232Z" fill="white"/>
<path d="M187.039 235.233H190.077V229.159H195.261V235.233H201.629V239.588H195.261V247.986C195.261 249.972 195.756 250.854 198.176 250.854C199.309 250.857 200.44 250.741 201.55 250.507V254.595C200.044 255.146 198.452 255.417 196.851 255.396C191.473 255.396 190.077 252.724 190.077 248.334V239.588H187.039V235.233Z" fill="white"/>
<path d="M211.767 245.082C211.767 238.403 214.831 234.654 220.819 234.654C222.772 234.62 224.713 234.971 226.533 235.687V239.962C224.949 239.424 223.285 239.168 221.614 239.205C218.505 239.205 217.066 241.609 217.066 244.931C217.066 248.253 218.549 250.889 221.649 250.889C223.362 250.929 225.068 250.67 226.692 250.123V254.291C224.703 255.079 222.576 255.455 220.439 255.395C214.867 255.395 211.767 251.388 211.767 245.082Z" fill="white"/>
<path d="M228.548 245.046C228.548 238.972 231.462 234.617 238.263 234.617C245.231 234.617 247.978 238.972 247.978 245.001C247.978 251.031 245.063 255.43 238.263 255.43C231.277 255.43 228.548 251.093 228.548 245.046ZM242.599 245.046C242.599 241.653 241.504 238.901 238.245 238.901C234.986 238.901 233.891 241.689 233.891 245.091C233.891 248.493 234.986 251.236 238.245 251.236C241.504 251.236 242.599 248.421 242.599 245.001V245.046Z" fill="white"/>
<path d="M251.661 235.232H256.165L256.58 236.835C258.229 235.316 260.408 234.518 262.639 234.618C267.567 234.618 269.651 237.557 269.651 241.992V254.825H264.458V242.678C264.458 240.273 263.248 239.16 260.926 239.16C259.502 239.127 258.098 239.497 256.872 240.228V254.825H251.688L251.661 235.232Z" fill="white"/>
<path d="M274.473 235.232H278.986L279.401 236.835C281.049 235.316 283.228 234.518 285.459 234.618C290.379 234.618 292.463 237.557 292.463 241.992V254.825H287.279V242.678C287.279 240.273 286.069 239.16 283.746 239.16C282.322 239.126 280.917 239.496 279.692 240.228V254.825H274.473V235.232Z" fill="white"/>
<path d="M295.669 245.117C295.669 239.426 298.018 234.617 304.501 234.617C311.124 234.617 313.332 239.622 313.332 244.699C313.334 245.312 313.296 245.925 313.218 246.533H300.871C301.065 249.205 302.461 250.888 305.914 250.888C308.05 250.908 310.175 250.571 312.202 249.891V254.023C310.037 255.007 307.677 255.476 305.304 255.395C298.946 255.395 295.669 251.423 295.669 245.117ZM300.889 242.828H308.086C307.901 240.272 306.726 238.705 304.457 238.705C302.187 238.705 301.1 240.272 300.906 242.828H300.889Z" fill="white"/>
<path d="M315.345 245.083C315.345 238.404 318.409 234.654 324.397 234.654C326.35 234.623 328.291 234.974 330.111 235.687V239.962C328.524 239.426 326.857 239.169 325.183 239.205C322.075 239.205 320.635 241.61 320.635 244.932C320.635 248.254 322.119 250.89 325.219 250.89C326.931 250.93 328.637 250.671 330.262 250.124V254.292C328.272 255.08 326.145 255.456 324.009 255.396C318.409 255.396 315.345 251.388 315.345 245.083Z" fill="white"/>
<path d="M331.376 235.233H334.405V229.159H339.589V235.233H345.957V239.588H339.589V247.986C339.589 249.972 340.084 250.854 342.513 250.854C343.643 250.857 344.771 250.74 345.878 250.507V254.595C344.372 255.146 342.781 255.417 341.179 255.396C335.801 255.396 334.405 252.724 334.405 248.334V239.588H331.376V235.233Z" fill="white"/>
<path d="M347.59 254.13V249.936C349.632 250.682 351.785 251.073 353.958 251.093C356.271 251.093 357.632 250.604 357.632 249.312C357.632 248.021 356.536 247.593 353.843 246.943C349.568 245.91 347.784 244.227 347.784 240.709C347.784 237.191 350.213 234.671 355.962 234.671C358.241 234.671 360.97 235.205 362.065 235.971V240.175C360.117 239.415 358.05 239.014 355.962 238.99C354.302 238.99 353.127 239.489 353.127 240.709C353.127 241.929 354.222 242.348 356.872 242.998C361.12 244.031 362.975 245.67 362.975 249.232C362.975 252.794 359.981 255.422 354.302 255.422C351.679 255.395 348.764 254.825 347.59 254.13Z" fill="white"/>
<path d="M387.438 253.257C386.675 253.981 385.777 254.546 384.797 254.919C383.816 255.292 382.772 255.466 381.724 255.43C376.796 255.43 374.712 252.491 374.712 248.056V235.231H379.905V247.37C379.905 249.784 381.115 250.933 383.438 250.933C384.745 250.941 386.029 250.583 387.147 249.9V235.231H392.34V254.824H387.827L387.438 253.257Z" fill="white"/>
<path d="M396.271 254.131V249.936C398.315 250.675 400.468 251.06 402.639 251.076C404.944 251.076 406.313 250.586 406.313 249.295C406.313 248.003 405.183 247.531 402.533 246.917C398.25 245.884 396.475 244.201 396.475 240.683C396.475 237.165 398.894 234.645 404.653 234.645C406.923 234.645 409.652 235.179 410.747 235.945V240.148C408.802 239.388 406.738 238.987 404.653 238.964C402.984 238.964 401.809 239.463 401.809 240.683C401.809 241.903 402.913 242.321 405.562 242.972C409.802 244.005 411.656 245.643 411.656 249.206C411.656 252.768 408.662 255.395 402.984 255.395C400.361 255.395 397.446 254.825 396.271 254.131Z" fill="white"/>
</svg>
