<svg width="158" height="101" viewBox="0 0 158 101" fill="none" xmlns="http://www.w3.org/2000/svg">
<g filter="url(#filter0_d_204_1264)">
<path d="M77.1865 18.8193H59.4855V36.669H77.1865V18.8193Z" fill="#FFDD00"/>
<path d="M85.9454 0H14.2122H4V10.298V82.6339V92.9319H14.2122H52.0643V82.6339H14.2122V10.298H85.9454V45.4948L96.1576 55.9485V10.298V0H85.9454Z" fill="#FFDD00"/>
<path d="M27.6656 61.9536H33.2058C36.9421 61.9536 38.701 63.818 38.701 67.1642C38.701 70.5104 36.8778 72.4624 32.9646 72.4624H30.7428V78.007H27.6656V61.9536ZM30.7428 64.3725V70.0176H32.672C34.717 70.0176 35.5659 68.886 35.5659 67.1577C35.5659 65.4295 34.7299 64.366 32.9485 64.366L30.7428 64.3725Z" fill="white"/>
<path d="M49.1222 71.0454H42.836V78.007H39.7332V61.9536H42.836V68.4742H49.1222V61.9536H52.2219V78.007H49.1222V71.0454Z" fill="white"/>
<path d="M53.7685 69.9788C53.7685 65.3908 55.3762 61.6003 60.7396 61.6003C66.2797 61.6003 67.7074 65.3908 67.7074 69.9788C67.7074 74.5669 66.0997 78.3606 60.7396 78.3606C55.2122 78.3606 53.7685 74.5572 53.7685 69.9788ZM64.4984 69.9788C64.4984 66.3667 63.3987 64.2397 60.7396 64.2397C58.0804 64.2397 56.9775 66.3667 56.9775 69.9788C56.9775 73.5909 58.0772 75.7212 60.7396 75.7212C63.4019 75.7212 64.5113 73.5844 64.5113 69.9788H64.4984ZM59.3537 57.8326H62.1286L64.4566 60.8902H62.2605L60.7428 59.2949L59.2347 60.8902H57.0354L59.3537 57.8326ZM65.3698 56.0752H68.7331L65.9164 59.1328H63.7363L65.3698 56.0752Z" fill="white"/>
<path d="M73.2604 61.9536H78.6463C82.1833 61.9536 83.8778 63.484 83.8778 66.1883C83.8778 67.8743 83.2186 68.9606 82.0772 69.6253C82.8653 69.9434 83.5361 70.5005 83.9969 71.2195C84.4576 71.9385 84.6857 72.7841 84.6495 73.6394C84.6495 76.2334 83.0418 78.007 79.1511 78.007H73.2604V61.9536ZM76.3826 64.46V68.6752H78.2733C80.0546 68.6752 80.6913 67.8549 80.6913 66.4574C80.6913 65.2609 80.0096 64.4633 78.4405 64.4633L76.3826 64.46ZM76.3826 71.0227V75.5298H79.0868C80.7781 75.5298 81.4598 74.6867 81.4598 73.38C81.4598 72.0052 80.7331 71.0292 78.8231 71.0292L76.3826 71.0227Z" fill="white"/>
<path d="M86.119 61.9536H96.1672V64.5248H89.2219V68.4936H95.1994V71.0649H89.2219V75.4324H96.2572V78.0069H86.119V61.9536ZM89.8135 57.3882H92.5627L94.8939 60.89H92.6945L91.1768 59.071L89.6817 60.89H87.4823L89.8135 57.3882Z" fill="white"/>
<path d="M117.569 68.7593H118.932V61.9502H124.563C130.103 61.9502 131.859 65.3872 131.859 69.9753C131.859 74.5633 129.929 78.0036 124.563 78.0036H118.932V71.4214H117.569V68.7593ZM122.032 64.5247V68.7593H125.09V71.4214H122.032V75.4323H124.45C127.113 75.4323 128.65 73.7041 128.65 69.9785C128.65 66.2529 127.113 64.5247 124.45 64.5247H122.032Z" fill="white"/>
<path d="M132.672 69.9788C132.672 65.3908 134.28 61.6003 139.643 61.6003C145.183 61.6003 146.611 65.3908 146.611 69.9788C146.611 74.5669 145.003 78.3606 139.643 78.3606C134.103 78.3606 132.672 74.5572 132.672 69.9788ZM143.402 69.9788C143.402 66.3667 142.302 64.2397 139.643 64.2397C136.984 64.2397 135.881 66.3667 135.881 69.9788C135.881 73.5909 136.981 75.7212 139.643 75.7212C142.306 75.7212 143.402 73.5844 143.402 69.9788ZM138.257 57.8326H141.006L143.334 60.8902H141.138L139.621 59.2949L138.125 60.8902H135.926L138.257 57.8326ZM145.797 59.1296H143.621L140.807 56.0752H144.17L145.797 59.1296Z" fill="white"/>
<path d="M147.248 61.9536H154V64.4373H152.161V75.5298H153.984V78.0135H147.232V75.5298H149.058V64.4373H147.232L147.248 61.9536Z" fill="white"/>
<path d="M125.248 68.7627H117.73V71.4247H125.248V68.7627Z" fill="white"/>
<path d="M110.682 61.9536H107.714V68.8049L100.92 61.9536H97.7749V78.007H100.743V68.7401C100.743 68.2051 100.656 67.2518 100.547 66.2985L107.704 73.5162V78.007H110.682V61.9536Z" fill="white"/>
<path d="M60.9036 82.709H62.9872L66.5852 92.7768H64.5016L63.7878 90.6076H59.9936L59.2894 92.7768H57.3055L60.9036 82.709ZM60.5209 89.022H63.2637L62.3698 86.2692C62.1712 85.6736 62.0143 85.0647 61.9003 84.4469C61.7863 85.0647 61.6295 85.6736 61.4309 86.2692L60.5209 89.022Z" fill="white"/>
<path d="M67.4855 85.6435H69.2637L69.3312 86.5319C69.5159 86.2034 69.7824 85.9292 70.1044 85.7364C70.4264 85.5436 70.7928 85.4389 71.1672 85.4327C71.3633 85.4306 71.5585 85.4591 71.746 85.517V87.3393C71.4485 87.2653 71.1423 87.2326 70.836 87.242C70.5668 87.2348 70.2989 87.2816 70.0478 87.3795C69.7967 87.4775 69.5673 87.6247 69.373 87.8127V92.7769H67.4855V85.6435Z" fill="white"/>
<path d="M72.0965 85.643H73.2026V83.4316H75.09V85.643H77.4084V87.2285H75.09V90.2862C75.09 91.0093 75.2701 91.3303 76.1511 91.3303C76.5638 91.3314 76.9755 91.289 77.3794 91.2038V92.6921C76.8314 92.8928 76.2518 92.9917 75.6688 92.9839C73.7106 92.9839 73.2026 92.0112 73.2026 90.4126V87.2285H72.0965V85.643Z" fill="white"/>
<path d="M81.0997 89.2294C81.0997 86.7975 82.2154 85.4325 84.3955 85.4325C85.1066 85.4202 85.8133 85.5479 86.4759 85.8086V87.3649C85.8992 87.1693 85.2932 87.0761 84.6849 87.0893C83.553 87.0893 83.0289 87.9648 83.0289 89.1742C83.0289 90.3837 83.5691 91.3434 84.6977 91.3434C85.3211 91.3581 85.9423 91.2638 86.5338 91.0646V92.582C85.8094 92.869 85.0352 93.0058 84.2572 92.9841C82.2283 92.9841 81.0997 91.525 81.0997 89.2294Z" fill="white"/>
<path d="M87.209 89.2158C87.209 87.0045 88.2701 85.4189 90.746 85.4189C93.2829 85.4189 94.2829 87.0045 94.2829 89.1996C94.2829 91.3948 93.2219 92.9965 90.746 92.9965C88.2026 92.9965 87.209 91.4175 87.209 89.2158ZM92.3247 89.2158C92.3247 87.9805 91.926 86.9786 90.7395 86.9786C89.553 86.9786 89.1543 87.9935 89.1543 89.2321C89.1543 90.4707 89.553 91.4694 90.7395 91.4694C91.926 91.4694 92.3247 90.4447 92.3247 89.1996V89.2158Z" fill="white"/>
<path d="M95.6238 85.6428H97.2636L97.4148 86.2264C98.0149 85.6731 98.8082 85.3827 99.6206 85.4191C101.415 85.4191 102.174 86.4891 102.174 88.1038V92.7762H100.283V88.3535C100.283 87.478 99.8424 87.0727 98.9968 87.0727C98.4784 87.0608 97.9671 87.1956 97.5209 87.4618V92.7762H95.6334L95.6238 85.6428Z" fill="white"/>
<path d="M103.929 85.6428H105.572L105.723 86.2264C106.324 85.6731 107.117 85.3827 107.929 85.4191C109.72 85.4191 110.479 86.4891 110.479 88.1038V92.7762H108.592V88.3535C108.592 87.478 108.151 87.0727 107.305 87.0727C106.787 87.0603 106.276 87.1951 105.83 87.4618V92.7762H103.929V85.6428Z" fill="white"/>
<path d="M111.646 89.2418C111.646 87.1699 112.502 85.4189 114.862 85.4189C117.273 85.4189 118.077 87.2412 118.077 89.0894C118.078 89.3127 118.064 89.5359 118.035 89.7573H113.54C113.611 90.7301 114.119 91.3429 115.376 91.3429C116.154 91.3502 116.928 91.2275 117.666 90.9798V92.4843C116.877 92.8425 116.018 93.0133 115.154 92.9836C112.839 92.9836 111.646 91.5375 111.646 89.2418ZM113.547 88.4085H116.167C116.1 87.4779 115.672 86.9072 114.846 86.9072C114.019 86.9072 113.624 87.4779 113.553 88.4085H113.547Z" fill="white"/>
<path d="M118.81 89.2292C118.81 86.7974 119.926 85.4323 122.106 85.4323C122.817 85.421 123.524 85.5488 124.187 85.8085V87.3648C123.609 87.1695 123.002 87.0762 122.392 87.0892C121.26 87.0892 120.736 87.9647 120.736 89.1741C120.736 90.3835 121.277 91.3433 122.405 91.3433C123.029 91.358 123.65 91.2636 124.241 91.0645V92.5819C123.517 92.8689 122.743 93.0057 121.965 92.984C119.926 92.984 118.81 91.5249 118.81 89.2292Z" fill="white"/>
<path d="M124.646 85.643H125.749V83.4316H127.637V85.643H129.955V87.2285H127.637V90.2862C127.637 91.0093 127.817 91.3303 128.701 91.3303C129.113 91.3313 129.523 91.2889 129.926 91.2038V92.6921C129.378 92.8928 128.798 92.9917 128.215 92.9839C126.257 92.9839 125.749 92.0112 125.749 90.4126V87.2285H124.646V85.643Z" fill="white"/>
<path d="M130.55 92.5232V90.996C131.293 91.2676 132.077 91.4101 132.868 91.4176C133.711 91.4176 134.206 91.2392 134.206 90.7691C134.206 90.2989 133.807 90.1433 132.826 89.9066C131.27 89.5305 130.621 88.9176 130.621 87.6369C130.621 86.3561 131.505 85.4385 133.598 85.4385C134.428 85.4385 135.421 85.633 135.82 85.9119V87.4423C135.111 87.1657 134.358 87.0196 133.598 87.0111C132.994 87.0111 132.566 87.1926 132.566 87.6369C132.566 88.0811 132.965 88.2335 133.929 88.4702C135.476 88.8463 136.151 89.4429 136.151 90.7399C136.151 92.0369 135.061 92.9934 132.994 92.9934C132.039 92.9837 130.977 92.7761 130.55 92.5232Z" fill="white"/>
<path d="M145.058 92.2053C144.78 92.469 144.453 92.6746 144.096 92.8104C143.739 92.9462 143.359 93.0094 142.977 92.9965C141.183 92.9965 140.424 91.9264 140.424 90.3117V85.6426H142.315V90.062C142.315 90.9407 142.756 91.359 143.601 91.359C144.077 91.3621 144.545 91.2319 144.952 90.9829V85.6426H146.842V92.776H145.199L145.058 92.2053Z" fill="white"/>
<path d="M148.273 92.5232V90.996C149.017 91.2649 149.801 91.4053 150.592 91.411C151.431 91.411 151.929 91.2327 151.929 90.7625C151.929 90.2924 151.518 90.1205 150.553 89.8968C148.994 89.5207 148.347 88.9079 148.347 87.6271C148.347 86.3463 149.228 85.4287 151.325 85.4287C152.151 85.4287 153.145 85.6233 153.543 85.9021V87.4325C152.835 87.1559 152.084 87.0098 151.325 87.0013C150.717 87.0013 150.289 87.1829 150.289 87.6271C150.289 88.0713 150.691 88.2237 151.656 88.4604C153.199 88.8365 153.875 89.4331 153.875 90.7301C153.875 92.0271 152.785 92.9836 150.717 92.9836C149.762 92.9836 148.701 92.7761 148.273 92.5232Z" fill="white"/>
</g>
<defs>
<filter id="filter0_d_204_1264" x="0" y="0" width="158" height="100.998" filterUnits="userSpaceOnUse" color-interpolation-filters="sRGB">
<feFlood flood-opacity="0" result="BackgroundImageFix"/>
<feColorMatrix in="SourceAlpha" type="matrix" values="0 0 0 0 0 0 0 0 0 0 0 0 0 0 0 0 0 0 127 0" result="hardAlpha"/>
<feOffset dy="4"/>
<feGaussianBlur stdDeviation="2"/>
<feComposite in2="hardAlpha" operator="out"/>
<feColorMatrix type="matrix" values="0 0 0 0 0 0 0 0 0 0 0 0 0 0 0 0 0 0 0.25 0"/>
<feBlend mode="normal" in2="BackgroundImageFix" result="effect1_dropShadow_204_1264"/>
<feBlend mode="normal" in="SourceGraphic" in2="effect1_dropShadow_204_1264" result="shape"/>
</filter>
</defs>
</svg>
