<svg width="347" height="102" viewBox="0 0 347 102" fill="none" xmlns="http://www.w3.org/2000/svg">
<path d="M0.000976562 16.166H15.218C25.4805 16.166 30.3115 21.2869 30.3115 30.4779C30.3115 39.6688 25.3039 45.0302 14.5557 45.0302H8.45294V60.2593H0.000976562V16.166ZM8.45294 22.8098V38.3151H13.752C19.369 38.3151 21.7005 35.2069 21.7005 30.46C21.7005 25.7132 19.4043 22.792 14.5115 22.792L8.45294 22.8098Z" fill="white"/>
<path d="M58.9351 41.1383H41.6691V60.2593H33.1465V16.166H41.6691V34.0758H58.9351V16.166H67.4489V60.2593H58.9351V41.1383Z" fill="white"/>
<path d="M71.6973 38.2087C71.6973 25.6068 76.1131 15.1957 90.8444 15.1957C106.062 15.1957 109.983 25.6068 109.983 38.2087C109.983 50.8105 105.567 61.2305 90.8444 61.2305C75.6627 61.2305 71.6973 50.7838 71.6973 38.2087ZM101.169 38.2087C101.169 28.2874 98.1483 22.4451 90.8444 22.4451C83.5406 22.4451 80.5113 28.2874 80.5113 38.2087C80.5113 48.1299 83.5318 53.981 90.8444 53.981C98.1571 53.981 101.204 48.112 101.204 38.2087H101.169ZM87.038 4.84705H94.6598L101.054 13.2453H95.0219L90.8533 8.8636L86.7112 13.2453H80.6703L87.038 4.84705ZM103.562 0.0200195H112.8L105.064 8.41831H99.0756L103.562 0.0200195Z" fill="white"/>
<path d="M125.234 16.166H140.028C149.742 16.166 154.397 20.3696 154.397 27.7972C154.397 32.4282 152.586 35.4117 149.451 37.2375C151.616 38.1113 153.458 39.6414 154.724 41.6163C155.989 43.5913 156.616 45.9137 156.516 48.263C156.516 55.3878 152.1 60.2593 141.414 60.2593H125.234V16.166ZM133.81 23.0503V34.628H139.003C143.896 34.628 145.644 32.3748 145.644 28.5363C145.644 25.2501 143.772 23.0592 139.462 23.0592L133.81 23.0503ZM133.81 41.0759V53.4552H141.237C145.883 53.4552 147.755 51.1396 147.755 47.5505C147.755 43.7744 145.759 41.0937 140.513 41.0937L133.81 41.0759Z" fill="white"/>
<path d="M160.554 16.166H188.153V23.2284H169.076V34.1293H185.495V41.1917H169.076V53.188H188.4V60.2593H160.554V16.166ZM170.701 3.62646H178.253L184.656 13.2449H178.615L174.446 8.24865L170.339 13.2449H164.298L170.701 3.62646Z" fill="white"/>
<path d="M246.937 34.8592H250.681V16.1567H266.146C281.363 16.1567 286.185 25.597 286.185 38.1989C286.185 50.8008 280.886 60.25 266.146 60.25H250.681V42.171H246.937V34.8592ZM259.195 23.2281V34.8592H267.594V42.171H259.195V53.1876H265.836C273.149 53.1876 277.371 48.4408 277.371 38.2078C277.371 27.9749 273.149 23.2281 265.836 23.2281H259.195Z" fill="white"/>
<path d="M288.418 38.2087C288.418 25.6068 292.834 15.1957 307.565 15.1957C322.782 15.1957 326.703 25.6068 326.703 38.2087C326.703 50.8105 322.288 61.2305 307.565 61.2305C292.348 61.2305 288.418 50.7838 288.418 38.2087ZM317.889 38.2087C317.889 28.2874 314.869 22.4451 307.565 22.4451C300.261 22.4451 297.232 28.2874 297.232 38.2087C297.232 48.1299 300.252 53.981 307.565 53.981C314.878 53.981 317.889 48.112 317.889 38.2087ZM303.759 4.84705H311.31L317.704 13.2453H311.672L307.503 8.8636L303.397 13.2453H297.356L303.759 4.84705ZM324.469 8.40942H318.49L310.762 0.0200195H320L324.469 8.40942Z" fill="white"/>
<path d="M328.453 16.166H347V22.988H341.948V53.4552H346.956V60.2771H328.409V53.4552H333.426V22.988H328.409L328.453 16.166Z" fill="white"/>
<path d="M268.026 34.8682H247.378V42.1799H268.026V34.8682Z" fill="white"/>
<path d="M228.019 16.166H219.867V34.9843L201.206 16.166H192.568V60.2593H200.72V34.8061C200.72 33.3367 200.482 30.7183 200.181 28.1L219.841 47.9246V60.2593H228.019V16.166Z" fill="white"/>
<path d="M91.2948 73.1729H97.0178L106.9 100.826H101.178L99.2169 94.8677H88.7954L86.8613 100.826H81.4121L91.2948 73.1729ZM90.2438 90.5127H97.7773L95.3221 82.9515C94.7767 81.3156 94.3458 79.6432 94.0326 77.9464C93.7195 79.6432 93.2886 81.3156 92.7432 82.9515L90.2438 90.5127Z" fill="white"/>
<path d="M109.373 81.233H114.257L114.442 83.6732C114.95 82.7708 115.682 82.0177 116.566 81.4882C117.451 80.9586 118.457 80.6712 119.485 80.6541C120.024 80.6484 120.56 80.7265 121.075 80.8856V85.8908C120.258 85.6877 119.417 85.5978 118.576 85.6236C117.836 85.6038 117.101 85.7322 116.411 86.0013C115.721 86.2703 115.091 86.6747 114.557 87.191V100.826H109.373V81.233Z" fill="white"/>
<path d="M122.038 81.233H125.076V75.1592H130.26V81.233H136.628V85.588H130.26V93.9863C130.26 95.9724 130.755 96.854 133.175 96.854C134.308 96.8572 135.439 96.7408 136.549 96.5067V100.595C135.043 101.146 133.451 101.417 131.85 101.396C126.472 101.396 125.076 98.7243 125.076 94.3336V85.588H122.038V81.233Z" fill="white"/>
<path d="M146.767 91.0819C146.767 84.4025 149.831 80.6531 155.819 80.6531C157.772 80.6193 159.713 80.9702 161.533 81.6862V85.961C159.949 85.4237 158.285 85.1676 156.614 85.204C153.505 85.204 152.066 87.6086 152.066 90.9305C152.066 94.2524 153.549 96.8886 156.649 96.8886C158.362 96.9289 160.068 96.6698 161.692 96.1227V100.291C159.703 101.079 157.576 101.455 155.439 101.395C149.867 101.395 146.767 97.3873 146.767 91.0819Z" fill="white"/>
<path d="M163.547 91.0465C163.547 84.9727 166.461 80.6177 173.262 80.6177C180.23 80.6177 182.977 84.9727 182.977 91.002C182.977 97.0313 180.062 101.431 173.262 101.431C166.276 101.431 163.547 97.0936 163.547 91.0465ZM177.598 91.0465C177.598 87.6533 176.503 84.9014 173.244 84.9014C169.985 84.9014 168.89 87.689 168.89 91.0911C168.89 94.4931 169.985 97.2361 173.244 97.2361C176.503 97.2361 177.598 94.4219 177.598 91.002V91.0465Z" fill="white"/>
<path d="M186.66 81.2322H191.164L191.579 82.8353C193.228 81.3156 195.407 80.518 197.638 80.6177C202.566 80.6177 204.65 83.5567 204.65 87.9918V100.825H199.457V88.6776C199.457 86.273 198.247 85.1598 195.925 85.1598C194.501 85.1271 193.097 85.4973 191.871 86.2284V100.825H186.687L186.66 81.2322Z" fill="white"/>
<path d="M209.472 81.2322H213.985L214.4 82.8353C216.048 81.3156 218.227 80.518 220.458 80.6177C225.378 80.6177 227.462 83.5567 227.462 87.9918V100.825H222.278V88.6776C222.278 86.273 221.068 85.1598 218.745 85.1598C217.321 85.1257 215.916 85.496 214.691 86.2284V100.825H209.472V81.2322Z" fill="white"/>
<path d="M230.669 91.1178C230.669 85.4269 233.018 80.6177 239.501 80.6177C246.124 80.6177 248.332 85.6228 248.332 90.6992C248.334 91.3126 248.296 91.9255 248.218 92.5338H235.871C236.065 95.2056 237.461 96.8888 240.914 96.8888C243.05 96.909 245.175 96.5719 247.202 95.8914V100.024C245.037 101.008 242.677 101.477 240.304 101.395C233.946 101.395 230.669 97.4232 230.669 91.1178ZM235.889 88.829H243.086C242.901 86.2729 241.726 84.7055 239.457 84.7055C237.187 84.7055 236.1 86.2729 235.906 88.829H235.889Z" fill="white"/>
<path d="M250.345 91.0831C250.345 84.4036 253.409 80.6542 259.397 80.6542C261.35 80.6232 263.291 80.974 265.111 81.6873V85.9622C263.524 85.4256 261.857 85.1695 260.183 85.2052C257.075 85.2052 255.635 87.6098 255.635 90.9317C255.635 94.2536 257.119 96.8897 260.219 96.8897C261.931 96.93 263.637 96.6709 265.262 96.1238V100.292C263.272 101.08 261.145 101.456 259.009 101.396C253.409 101.396 250.345 97.3885 250.345 91.0831Z" fill="white"/>
<path d="M266.375 81.233H269.404V75.1592H274.589V81.233H280.956V85.588H274.589V93.9863C274.589 95.9724 275.083 96.854 277.512 96.854C278.642 96.8568 279.77 96.7404 280.877 96.5067V100.595C279.371 101.146 277.78 101.417 276.178 101.396C270.8 101.396 269.404 98.7243 269.404 94.3336V85.588H266.375V81.233Z" fill="white"/>
<path d="M282.59 100.131V95.9362C284.632 96.6821 286.785 97.0735 288.958 97.0939C291.271 97.0939 292.632 96.6041 292.632 95.3127C292.632 94.0214 291.536 93.5939 288.843 92.9438C284.568 91.9107 282.784 90.2275 282.784 86.7096C282.784 83.1918 285.213 80.6714 290.962 80.6714C293.241 80.6714 295.97 81.2057 297.065 81.9716V86.1752C295.117 85.4154 293.05 85.0142 290.962 84.9908C289.302 84.9908 288.127 85.4895 288.127 86.7096C288.127 87.9297 289.222 88.3483 291.872 88.9984C296.12 90.0315 297.975 91.6702 297.975 95.2326C297.975 98.795 294.981 101.422 289.302 101.422C286.679 101.395 283.764 100.826 282.59 100.131Z" fill="white"/>
<path d="M322.438 99.2575C321.675 99.9818 320.777 100.547 319.797 100.92C318.816 101.292 317.772 101.466 316.724 101.431C311.796 101.431 309.712 98.4916 309.712 94.0565V81.2319H314.905V93.3707C314.905 95.7842 316.115 96.9331 318.438 96.9331C319.745 96.9415 321.029 96.5838 322.147 95.9V81.2319H327.34V100.825H322.827L322.438 99.2575Z" fill="white"/>
<path d="M331.271 100.131V95.936C333.314 96.6747 335.467 97.0601 337.638 97.076C339.943 97.076 341.312 96.5862 341.312 95.2948C341.312 94.0034 340.182 93.5314 337.532 92.9169C333.249 91.8838 331.474 90.2006 331.474 86.6828C331.474 83.1649 333.894 80.6445 339.652 80.6445C341.922 80.6445 344.651 81.1789 345.746 81.9448V86.1484C343.801 85.3885 341.737 84.9873 339.652 84.9639C337.983 84.9639 336.808 85.4626 336.808 86.6828C336.808 87.9029 337.912 88.3215 340.561 88.9716C344.801 90.0047 346.655 91.6434 346.655 95.2057C346.655 98.7681 343.661 101.395 337.983 101.395C335.36 101.395 332.445 100.825 331.271 100.131Z" fill="white"/>
</svg>
