<svg width="28" height="33" viewBox="0 0 28 33" fill="none" xmlns="http://www.w3.org/2000/svg">
<path d="M27.1654 29.3536C27.3607 29.1583 27.3607 28.8417 27.1654 28.6464L23.9835 25.4645C23.7882 25.2692 23.4716 25.2692 23.2763 25.4645C23.0811 25.6597 23.0811 25.9763 23.2763 26.1716L26.1048 29L23.2763 31.8284C23.0811 32.0237 23.0811 32.3403 23.2763 32.5355C23.4716 32.7308 23.7882 32.7308 23.9835 32.5355L27.1654 29.3536ZM0.5 0V24H1.5V0H0.5ZM6 29.5H26.8119V28.5H6V29.5ZM0.5 24C0.5 27.0376 2.96243 29.5 6 29.5V28.5C3.51472 28.5 1.5 26.4853 1.5 24H0.5Z" fill="black"/>
</svg>
