<svg width="24" height="25" viewBox="0 0 24 25" fill="none" xmlns="http://www.w3.org/2000/svg">
<path d="M23.3536 21.3536C23.5488 21.1583 23.5488 20.8417 23.3536 20.6464L20.1716 17.4645C19.9763 17.2692 19.6597 17.2692 19.4645 17.4645C19.2692 17.6597 19.2692 17.9763 19.4645 18.1716L22.2929 21L19.4645 23.8284C19.2692 24.0237 19.2692 24.3403 19.4645 24.5355C19.6597 24.7308 19.9763 24.7308 20.1716 24.5355L23.3536 21.3536ZM0.5 0V16H1.5V0H0.5ZM6 21.5H23V20.5H6V21.5ZM0.5 16C0.5 19.0376 2.96243 21.5 6 21.5V20.5C3.51472 20.5 1.5 18.4853 1.5 16H0.5Z" fill="#1B1D21"/>
</svg>
