<svg width="248" height="248" viewBox="0 0 248 248" fill="none" xmlns="http://www.w3.org/2000/svg">
<path fill-rule="evenodd" clip-rule="evenodd" d="M190.008 66.5168C192.241 68.1411 192.735 71.2683 191.11 73.5014L108.12 187.594C106.123 190.339 102.029 190.339 100.033 187.594L57.535 129.17C55.9107 126.937 56.4042 123.81 58.6373 122.185L59.5305 121.536C61.7636 119.911 64.8907 120.405 66.5151 122.638L104.076 174.276L182.13 66.9693C183.755 64.7362 186.882 64.2427 189.115 65.8671L190.008 66.5168Z" fill="#CACACA"/>
<path fill-rule="evenodd" clip-rule="evenodd" d="M124 11.1045C61.6495 11.1045 11.1045 61.6495 11.1045 124C11.1045 186.35 61.6495 236.896 124 236.896C186.35 236.896 236.896 186.35 236.896 124C236.896 61.6495 186.35 11.1045 124 11.1045ZM0 124C0 55.5167 55.5167 0 124 0C192.483 0 248 55.5167 248 124C248 192.483 192.483 248 124 248C55.5167 248 0 192.483 0 124Z" fill="#CACACA"/>
</svg>
